<svg width="47" height="30" viewBox="0 0 47 46" fill="none" xmlns="http://www.w3.org/2000/svg">
<g filter="url(#filter0_d_1_64)">
<rect x="5.50006" y="5" width="32" height="32" rx="16" fill="#E9EAF0"/>
<path d="M21.5 12.0417C21.8452 12.0417 22.125 12.3215 22.125 12.6667V13.5C22.125 13.8452 21.8452 14.125 21.5 14.125C21.1548 14.125 20.875 13.8452 20.875 13.5V12.6667C20.875 12.3215 21.1548 12.0417 21.5 12.0417Z" fill="black"/>
<path fill-rule="evenodd" clip-rule="evenodd" d="M16.7084 21C16.7084 18.3537 18.8537 16.2084 21.5 16.2084C24.1464 16.2084 26.2917 18.3537 26.2917 21C26.2917 23.6464 24.1464 25.7917 21.5 25.7917C18.8537 25.7917 16.7084 23.6464 16.7084 21ZM21.5 17.4584C19.544 17.4584 17.9584 19.044 17.9584 21C17.9584 22.956 19.544 24.5417 21.5 24.5417C23.456 24.5417 25.0417 22.956 25.0417 21C25.0417 19.044 23.456 17.4584 21.5 17.4584Z" fill="black"/>
<path d="M16.0494 14.6655C15.8053 14.4215 15.4096 14.4215 15.1655 14.6655C14.9215 14.9096 14.9215 15.3053 15.1655 15.5494L15.7548 16.1387C15.9989 16.3828 16.3946 16.3828 16.6387 16.1387C16.8828 15.8946 16.8828 15.4989 16.6387 15.2548L16.0494 14.6655Z" fill="black"/>
<path d="M30.4584 21C30.4584 21.3452 30.1785 21.625 29.8334 21.625H29C28.6548 21.625 28.375 21.3452 28.375 21C28.375 20.6548 28.6548 20.375 29 20.375H29.8334C30.1785 20.375 30.4584 20.6548 30.4584 21Z" fill="black"/>
<path d="M27.8345 15.5494C28.0786 15.3053 28.0786 14.9096 27.8345 14.6655C27.5904 14.4215 27.1947 14.4215 26.9506 14.6655L26.3614 15.2548C26.1173 15.4989 26.1173 15.8946 26.3614 16.1387C26.6054 16.3828 27.0012 16.3828 27.2452 16.1387L27.8345 15.5494Z" fill="black"/>
<path d="M21.5 27.875C21.8452 27.875 22.125 28.1548 22.125 28.5V29.3334C22.125 29.6785 21.8452 29.9584 21.5 29.9584C21.1548 29.9584 20.875 29.6785 20.875 29.3334V28.5C20.875 28.1548 21.1548 27.875 21.5 27.875Z" fill="black"/>
<path d="M27.2453 25.8614C27.0012 25.6173 26.6055 25.6173 26.3614 25.8614C26.1173 26.1055 26.1173 26.5012 26.3614 26.7453L26.9507 27.3345C27.1947 27.5786 27.5905 27.5786 27.8346 27.3345C28.0786 27.0904 28.0786 26.6947 27.8346 26.4506L27.2453 25.8614Z" fill="black"/>
<path d="M14.625 21C14.625 21.3452 14.3452 21.625 14 21.625H13.1667C12.8215 21.625 12.5417 21.3452 12.5417 21C12.5417 20.6548 12.8215 20.375 13.1667 20.375H14C14.3452 20.375 14.625 20.6548 14.625 21Z" fill="black"/>
<path d="M16.6386 26.7452C16.8827 26.5012 16.8827 26.1054 16.6386 25.8614C16.3945 25.6173 15.9988 25.6173 15.7547 25.8614L15.1655 26.4506C14.9214 26.6947 14.9214 27.0904 15.1655 27.3345C15.4096 27.5786 15.8053 27.5786 16.0494 27.3345L16.6386 26.7452Z" fill="black"/>
</g>
<defs>
<filter id="filter0_d_1_64" x="0.500061" y="0" width="46" height="46" filterUnits="userSpaceOnUse" color-interpolation-filters="sRGB">
<feFlood flood-opacity="0" result="BackgroundImageFix"/>
<feColorMatrix in="SourceAlpha" type="matrix" values="0 0 0 0 0 0 0 0 0 0 0 0 0 0 0 0 0 0 127 0" result="hardAlpha"/>
<feOffset dx="2" dy="2"/>
<feGaussianBlur stdDeviation="3.5"/>
<feComposite in2="hardAlpha" operator="out"/>
<feColorMatrix type="matrix" values="0 0 0 0 0 0 0 0 0 0 0 0 0 0 0 0 0 0 0.28 0"/>
<feBlend mode="normal" in2="BackgroundImageFix" result="effect1_dropShadow_1_64"/>
<feBlend mode="normal" in="SourceGraphic" in2="effect1_dropShadow_1_64" result="shape"/>
</filter>
</defs>
</svg>
