<svg width="1144" height="121" viewBox="0 0 1144 121" fill="none" xmlns="http://www.w3.org/2000/svg">
<g clip-path="url(#clip0_1_125)">
<path d="M20.8748 71.1699C20.4498 71.4296 19.9539 71.4768 19.576 71.2643C19.1038 70.9809 18.8204 70.3434 18.8204 69.4696V66.8013C18.8204 65.5261 18.3245 64.6052 17.4744 64.369C16.0339 63.944 14.9477 65.715 14.5463 66.3762L11.9959 70.4614V65.4316C11.9723 64.2746 11.5945 63.5898 10.8861 63.3772C10.4138 63.2355 9.70537 63.3064 9.02056 64.3454L3.32958 73.4604C2.57393 72.02 2.17249 70.4142 2.17249 68.7848C2.17249 63.2828 6.58832 58.8197 11.9959 58.8197C17.4035 58.8197 21.8194 63.2828 21.8194 68.7848V68.8085V68.8321C21.8666 69.8947 21.536 70.7448 20.8748 71.1699ZM23.9919 68.7848V68.7612V68.7376C23.9683 62.0548 18.5842 56.6 11.9959 56.6C5.384 56.6 0 62.0548 0 68.7848C0 75.4912 5.384 80.9697 11.9959 80.9697C15.0421 80.9697 17.9231 79.8126 20.1428 77.7109C20.5914 77.2859 20.6151 76.6011 20.19 76.1524C19.7886 75.7038 19.1038 75.6801 18.6551 76.0816C18.6551 76.0816 18.6551 76.0816 18.6315 76.1052C16.8368 77.8054 14.4282 78.7736 11.9487 78.7736C9.04418 78.7736 6.44663 77.4984 4.65197 75.4676L9.77621 67.2499V71.0518C9.77621 72.8701 10.4846 73.4604 11.075 73.6257C11.6653 73.791 12.5627 73.6729 13.5308 72.138L16.3409 67.5805C16.4354 67.4388 16.5062 67.2972 16.6007 67.2027V69.5169C16.6007 71.2171 17.2855 72.5867 18.4662 73.2479C19.5288 73.8619 20.8748 73.791 21.9847 73.1062C23.3543 72.2089 24.0863 70.6503 23.9919 68.7848Z" fill="#85939A"/>
</g>
<g clip-path="url(#clip1_1_125)">
<path fill-rule="evenodd" clip-rule="evenodd" d="M53.9843 56.6001C60.6353 56.6001 66 61.9648 66 68.6472C66 75.2354 60.5725 80.6629 53.8902 80.6315C47.4274 80.5688 42 75.2354 42 68.6158C42 61.9648 47.3333 56.5688 53.9843 56.6001ZM44.8549 74.8903C44.8549 75.0158 44.9176 75.0786 44.9804 75.1727C45.451 75.8315 45.9843 76.459 46.6118 76.9923C46.8941 77.2433 47.1765 77.4943 47.4902 77.7139C48.3686 78.2786 49.2784 78.8119 50.2823 79.157C51.098 79.4394 51.9451 79.659 52.7922 79.7531C53.451 79.8158 54.1412 79.8472 54.8 79.7531C55.1765 79.6903 55.5843 79.6903 55.9608 79.5335C56.0235 79.5648 56.0549 79.5021 56.0863 79.5021C56.8706 79.3766 57.6235 79.1256 58.3765 78.8119C60.8235 77.7452 62.6745 76.0197 63.8667 73.6354C64.9333 71.5335 65.2784 69.306 64.9333 66.9844C64.6196 64.757 63.6784 62.8119 62.1726 61.1805C60.1647 58.8903 57.5922 57.6982 54.549 57.5099C53.2 57.4158 51.851 57.6041 50.5647 58.0433C48.4627 58.7335 46.7373 59.9256 45.3255 61.6511C43.7255 63.6276 42.9412 65.8864 42.8471 68.3962C42.8157 69.0237 42.8784 69.6197 42.9725 70.2472C43.1608 71.659 43.6314 73.008 44.3529 74.2315C44.5412 74.4197 44.6667 74.6707 44.8549 74.8903Z" fill="#85939A"/>
<path fill-rule="evenodd" clip-rule="evenodd" d="M55.9609 79.5023C55.5844 79.6905 55.1765 79.6905 54.8001 79.7219C54.1413 79.816 53.4511 79.7846 52.7922 79.7219C51.9452 79.6278 51.0981 79.4081 50.2824 79.1258C49.2785 78.7807 48.3687 78.2474 47.4903 77.6827C47.1766 77.4631 46.8942 77.2121 46.6118 76.9611C45.9844 76.4278 45.4511 75.8003 44.9805 75.1415C44.9177 75.0474 44.855 74.9533 44.855 74.8591C45.6079 73.165 45.8903 71.3768 46.0471 69.5572C46.1099 68.7101 46.1413 67.8631 46.2981 67.016C46.455 66.0435 46.8315 65.165 47.5217 64.4121C48.1491 63.7533 48.9334 63.314 49.7805 63.0003C50.4707 62.718 51.1922 62.467 51.9766 62.4356C52.6981 62.4042 53.3883 62.4984 54.0785 62.6552C55.1138 62.9062 56.1491 63.2199 57.1216 63.6905C57.906 64.0042 58.7216 64.318 59.5373 64.5689C60.3844 64.8199 61.2315 65.1023 61.953 65.6356C62.8628 66.3258 63.1138 67.2042 62.706 68.2709C62.455 68.9297 61.9844 69.4317 61.5138 69.9336C60.6667 70.8121 59.7569 71.6278 58.9413 72.5376C58.0001 73.6356 57.153 74.765 56.5569 76.0827C56.055 77.1807 55.7726 78.3101 55.9609 79.5023ZM62.0158 69.1807C61.9844 69.1807 61.953 69.1807 61.9216 69.2121C61.8903 69.2121 61.8589 69.2434 61.8589 69.2748C61.8589 69.2748 61.8589 69.2748 61.8589 69.3062C61.8903 69.3062 61.9216 69.2748 61.9216 69.2434L62.0158 69.1807C62.0785 69.1807 62.0471 69.1807 62.0158 69.1807ZM52.4158 63.7219C51.2236 63.7219 50.2511 64.6944 50.2511 65.8552C50.2511 67.0474 51.2236 67.9885 52.3844 68.0199C53.5765 68.0199 54.5177 67.0474 54.5491 65.8552C54.5491 64.6631 53.6079 63.7219 52.4158 63.7219ZM54.1726 70.3101C54.3609 70.5925 54.706 70.8434 55.1138 70.9689C55.9295 71.2513 56.7452 71.2513 57.5609 71.0944C59.004 70.8121 60.353 70.3101 61.5765 69.4944C61.6393 69.4317 61.7648 69.4317 61.7962 69.3062C61.7334 69.2748 61.702 69.3062 61.6707 69.3376C61.2628 69.5885 60.8236 69.7768 60.3844 69.965C59.255 70.4356 58.0628 70.7493 56.8079 70.8121C55.8981 70.8748 54.9883 70.8121 54.1726 70.3101ZM60.102 68.4591C60.353 68.4591 60.5726 68.2395 60.5726 67.9572C60.5726 67.7062 60.353 67.4866 60.0707 67.518C59.8197 67.518 59.6315 67.7376 59.6315 67.9885C59.6315 68.2709 59.8197 68.4591 60.102 68.4591Z" fill="#85939A"/>
<path fill-rule="evenodd" clip-rule="evenodd" d="M54.0472 62.6551C53.357 62.5296 52.6668 62.4041 51.9452 62.4355C51.1609 62.4669 50.4707 62.7179 49.7491 63.0002C48.9021 63.3139 48.1177 63.7532 47.4903 64.412C46.8001 65.1336 46.4236 66.012 46.2668 67.0159C46.1413 67.863 46.1099 68.71 46.0158 69.5571C45.8589 71.3767 45.5766 73.1963 44.8236 74.859C44.604 74.6708 44.4785 74.3885 44.353 74.1688C43.6315 72.9453 43.1609 71.5963 42.9726 70.1845C42.8785 69.5571 42.8158 68.961 42.8471 68.3336C42.9413 65.8238 43.7256 63.5649 45.3256 61.5885C46.706 59.863 48.4628 58.6708 50.5648 57.9806C51.8511 57.5728 53.2001 57.3845 54.5491 57.4473C57.5609 57.6355 60.1334 58.859 62.1726 61.0865C63.6785 62.7492 64.5883 64.6943 64.9334 66.8904C65.2785 69.212 64.9334 71.4394 63.8668 73.5414C62.6746 75.9257 60.8236 77.6512 58.3766 78.7179C57.655 79.0316 56.9021 79.2826 56.0864 79.4081C56.0236 79.4081 55.9922 79.5022 55.9609 79.4394C55.7726 78.2473 56.055 77.1179 56.5256 76.0198C57.1217 74.7022 57.9687 73.5728 58.9099 72.4747C59.6942 71.5649 60.604 70.7179 61.4824 69.8708C61.9844 69.3688 62.4236 68.8669 62.6746 68.2081C63.1138 67.1414 62.8628 66.263 61.9217 65.5728C61.2001 65.0394 60.353 64.7571 59.506 64.5061C58.6903 64.2551 57.8746 63.9414 57.0903 63.6277C56.9334 63.0943 56.557 62.7492 56.055 62.561C55.3962 62.4041 54.7373 62.4669 54.0472 62.6551ZM64.306 69.3375H64.3687C64.4942 68.8983 64.4942 68.4277 64.4942 67.9571C64.4942 67.4237 64.4315 66.8904 64.3373 66.3571C63.9923 64.6316 63.2079 63.1257 61.9844 61.8394C61.2315 61.0551 60.3844 60.3963 59.5373 59.7061C58.7844 59.0787 57.9687 58.6081 57.0275 58.3571C56.1177 58.1375 55.2393 58.012 54.2981 58.1688C54.2354 58.1688 54.1726 58.1688 54.1726 58.2316C54.1726 58.2943 54.2354 58.2943 54.2981 58.2943C55.6785 58.5453 56.9962 58.9845 58.2824 59.4865C59.5373 59.9885 60.604 60.71 61.3883 61.8394C61.9217 62.6238 62.4236 63.4394 62.8315 64.3179C63.3648 65.51 63.7726 66.7335 64.0236 67.9885C64.1491 68.4904 64.2432 68.8983 64.306 69.3375Z" fill="white"/>
<path fill-rule="evenodd" clip-rule="evenodd" d="M52.4158 63.7218C53.608 63.7218 54.5491 64.6944 54.5491 65.8552C54.5491 67.0473 53.5766 67.9885 52.3844 68.0199C51.1923 68.0199 50.2511 67.0473 50.2511 65.8552C50.2511 64.663 51.2236 63.7218 52.4158 63.7218ZM53.9217 65.8865C53.9217 65.0395 53.2629 64.3807 52.4158 64.3807C51.5687 64.3807 50.9099 65.0395 50.9099 65.8865C50.9099 66.7022 51.5687 67.3924 52.3844 67.3924H52.4158C53.2315 67.3924 53.8903 66.7336 53.9217 65.8865Z" fill="#FCFDFB"/>
<path fill-rule="evenodd" clip-rule="evenodd" d="M54.1726 70.3101C54.9883 70.8121 55.8981 70.8748 56.8079 70.8434C58.0628 70.7807 59.255 70.4983 60.3844 69.9964C60.8236 69.8081 61.2628 69.6199 61.6707 69.3689C61.702 69.3375 61.7334 69.3062 61.7961 69.3375C61.7648 69.4317 61.6706 69.463 61.5765 69.5258C60.353 70.3415 59.004 70.8434 57.5608 71.1258C56.7452 71.2826 55.8981 71.2826 55.1138 71.0003C54.7059 70.8434 54.3295 70.5924 54.1726 70.3101ZM54.0471 62.6552C54.7059 62.467 55.3961 62.4042 56.055 62.6552C56.5569 62.8434 56.9334 63.1885 57.0903 63.7219C56.1491 63.2199 55.1138 62.9062 54.0471 62.6552Z" fill="#85939A"/>
<path fill-rule="evenodd" clip-rule="evenodd" d="M60.1021 68.4591C59.8511 68.4591 59.6315 68.2395 59.6315 67.9886C59.6315 67.7376 59.8197 67.518 60.0707 67.518C60.3217 67.518 60.5413 67.7062 60.5726 67.9572C60.5413 68.2395 60.353 68.4591 60.1021 68.4591Z" fill="#FCFDFB"/>
<path fill-rule="evenodd" clip-rule="evenodd" d="M61.9217 69.2433C61.9217 69.2747 61.8903 69.3061 61.8589 69.3061C61.8589 69.2433 61.8903 69.2119 61.9217 69.2433ZM62.0158 69.1806L61.9217 69.2433L61.8903 69.2119C61.9531 69.1806 61.9844 69.1806 62.0158 69.1806Z" fill="#85939A"/>
<path fill-rule="evenodd" clip-rule="evenodd" d="M64.306 69.3375C64.2119 68.8983 64.1178 68.4904 64.055 68.0512C63.804 66.765 63.3648 65.5414 62.8629 64.3806C62.4864 63.5022 61.9844 62.6865 61.4197 61.9022C60.6354 60.7728 59.6001 60.0512 58.3138 59.5493C56.9962 59.0473 55.7099 58.5767 54.3295 58.3571C54.2668 58.3571 54.204 58.3571 54.204 58.2944C54.204 58.2316 54.2668 58.2316 54.3295 58.2316C55.2393 58.0748 56.1491 58.1689 57.0589 58.4199C58.0001 58.6708 58.8158 59.1728 59.5687 59.7689C60.4158 60.4591 61.2629 61.1179 62.0158 61.9022C63.2393 63.1885 64.0236 64.6944 64.3687 66.4199C64.4629 66.9532 64.5256 67.4865 64.5256 68.0199C64.5256 68.4591 64.5256 68.9297 64.4001 69.4002L64.306 69.3375Z" fill="#FFFEFC"/>
<path fill-rule="evenodd" clip-rule="evenodd" d="M53.9217 65.8863C53.9217 66.702 53.2629 67.3922 52.4472 67.3922H52.4158C51.6001 67.3922 50.9099 66.7333 50.9099 65.8863V65.8549C50.9099 65.0079 51.6001 64.349 52.4158 64.349C53.2315 64.349 53.9217 65.0392 53.9217 65.8863Z" fill="#85939A"/>
</g>
<g clip-path="url(#clip2_1_125)">
<path d="M24 12.5998C24 15.7824 22.7357 18.8347 20.4852 21.0852C18.2348 23.3357 15.1824 24.6 11.9998 24.6C8.8173 24.5999 5.76515 23.3356 3.51478 21.0852C1.26441 18.8349 0.00010948 15.7827 0 12.6002C-1.88315e-09 9.41765 1.26425 6.3654 3.51464 4.11492C5.765 1.86446 8.8172 0.600108 11.9998 0.599998C15.1824 0.599998 18.2346 1.86424 20.4851 4.11463C22.7355 6.365 23.9999 9.4172 24 12.5998Z" fill="#111C23"/>
<path d="M13.6412 20.2034C13.5496 20.2035 13.4609 20.1713 13.3906 20.1126C13.3466 20.0759 13.3113 20.03 13.287 19.9781C13.2628 19.9263 13.2502 19.8697 13.2502 19.8125V16.5851C13.2503 16.4935 13.2824 16.4048 13.3411 16.3345C13.3998 16.2642 13.4813 16.2167 13.5714 16.2003C14.4581 16.0379 15.2755 15.6126 15.9174 14.9796C16.0442 14.8532 16.162 14.7182 16.27 14.5755C15.1479 13.4576 13.8566 13.9393 12.3614 14.4966L11.9123 14.6617C10.3848 15.2314 8.65104 15.8771 7.17354 14.3992C6.69779 13.913 6.39914 13.281 6.32544 12.6047C6.25179 11.9285 6.40739 11.2471 6.76734 10.6698C5.96314 9.41855 6.23849 7.73095 7.53024 6.43885C8.28484 5.6939 9.24609 5.19317 10.2891 5.00183C10.3454 4.99156 10.4033 4.99382 10.4587 5.00844C10.514 5.02307 10.5655 5.0497 10.6094 5.08646C10.6534 5.12313 10.6887 5.16903 10.713 5.22089C10.7373 5.27276 10.7498 5.32932 10.7498 5.38658V8.6177C10.7497 8.7092 10.7176 8.79785 10.659 8.8681C10.6004 8.9384 10.519 8.98595 10.429 9.00245C9.54229 9.1649 8.72489 9.5902 8.08299 10.2231C7.95634 10.3496 7.83854 10.4846 7.73044 10.6273C8.85249 11.7448 10.1438 11.2634 11.639 10.7057L12.0881 10.5406C13.6156 9.9705 15.3494 9.32485 16.8269 10.8031C17.1289 11.1026 17.361 11.4652 17.5066 11.8648C17.6521 12.2645 17.7076 12.6913 17.669 13.1149C17.6239 13.6114 17.4748 14.0929 17.2314 14.528C18.0373 15.7776 17.7631 17.4673 16.4685 18.7602C15.7143 19.505 14.7535 20.0057 13.7109 20.1972C13.6878 20.2014 13.6647 20.2035 13.6412 20.2034ZM14.0317 16.9009V19.3175C14.7426 19.1101 15.3905 18.7286 15.9166 18.2074C16.8248 17.2992 17.1117 16.1586 16.7286 15.2525C16.6461 15.3485 16.5598 15.4422 16.4698 15.5336C15.7955 16.2004 14.9535 16.6727 14.0329 16.9005L14.0317 16.9009ZM7.32464 11.3179C7.12279 11.7296 7.05299 12.1936 7.12479 12.6465C7.19664 13.0994 7.40654 13.519 7.72589 13.8481C8.84874 14.9709 10.1413 14.4888 11.6382 13.9306L12.0873 13.7655C13.564 13.2152 15.2309 12.5939 16.675 13.8852C16.7908 13.6205 16.8629 13.3388 16.8884 13.0509C16.9172 12.7403 16.8769 12.4272 16.7705 12.1339C16.6641 11.8406 16.4942 11.5746 16.2729 11.3547C15.15 10.2318 13.8575 10.714 12.3606 11.2721L11.9114 11.4372C10.4352 11.9875 8.76824 12.6092 7.32424 11.3183L7.32464 11.3179ZM9.96624 5.88445C9.25539 6.09195 8.60754 6.47345 8.08134 6.9945C7.17314 7.9027 6.88624 9.0429 7.26889 9.94865C7.35149 9.8534 7.43804 9.75985 7.52859 9.6679C8.20294 9.00065 9.04524 8.5282 9.96624 8.30065V5.88445Z" fill="#00FFB9"/>
</g>
<path d="M36.873 7.726V13.29C36.873 13.9313 36.9987 14.4123 37.25 14.733C37.5013 15.045 37.9217 15.201 38.511 15.201C39.1003 15.201 39.5207 15.045 39.772 14.733C40.0233 14.4123 40.149 13.9313 40.149 13.29V7.726H42.073V13.082C42.073 13.7493 42.008 14.33 41.878 14.824C41.7567 15.3093 41.553 15.7123 41.267 16.033C40.981 16.345 40.6127 16.579 40.162 16.735C39.7113 16.8823 39.161 16.956 38.511 16.956C37.861 16.956 37.3107 16.8823 36.86 16.735C36.4093 16.579 36.041 16.345 35.755 16.033C35.469 15.7123 35.261 15.3093 35.131 14.824C35.0097 14.33 34.949 13.7493 34.949 13.082V7.726H36.873ZM46.9654 16.956C46.168 16.956 45.492 16.8217 44.9374 16.553C44.3827 16.2757 43.9104 15.9203 43.5204 15.487L44.8204 14.174C45.4357 14.8673 46.194 15.214 47.0954 15.214C47.5807 15.214 47.9404 15.1143 48.1744 14.915C48.4084 14.7157 48.5254 14.4513 48.5254 14.122C48.5254 13.8707 48.456 13.6627 48.3174 13.498C48.1787 13.3247 47.897 13.2077 47.4724 13.147L46.5754 13.03C45.6134 12.9087 44.907 12.6183 44.4564 12.159C44.0144 11.6997 43.7934 11.0887 43.7934 10.326C43.7934 9.91866 43.8714 9.546 44.0274 9.20799C44.1834 8.86999 44.4044 8.57966 44.6904 8.337C44.985 8.09433 45.3404 7.908 45.7564 7.778C46.181 7.63933 46.662 7.56999 47.1994 7.56999C47.884 7.56999 48.4864 7.67833 49.0064 7.89499C49.5264 8.11166 49.9727 8.42799 50.3454 8.84399L49.0324 10.17C48.8157 9.91866 48.5514 9.71499 48.2394 9.55899C47.936 9.39433 47.5504 9.31199 47.0824 9.31199C46.6404 9.31199 46.311 9.38999 46.0944 9.546C45.8777 9.702 45.7694 9.91866 45.7694 10.196C45.7694 10.508 45.8517 10.7333 46.0164 10.872C46.1897 11.0107 46.467 11.1103 46.8484 11.171L47.7454 11.314C48.6814 11.4613 49.3747 11.7517 49.8254 12.185C50.276 12.6097 50.5014 13.2163 50.5014 14.005C50.5014 14.4383 50.4234 14.837 50.2674 15.201C50.1114 15.565 49.8817 15.877 49.5784 16.137C49.2837 16.397 48.9154 16.6007 48.4734 16.748C48.0314 16.8867 47.5287 16.956 46.9654 16.956ZM52.1397 7.726H55.5587C56.1567 7.726 56.7027 7.82133 57.1967 8.01199C57.6907 8.20266 58.111 8.48866 58.4577 8.87C58.8043 9.24266 59.073 9.71499 59.2637 10.287C59.4543 10.8503 59.5497 11.509 59.5497 12.263C59.5497 13.017 59.4543 13.68 59.2637 14.252C59.073 14.8153 58.8043 15.2877 58.4577 15.669C58.111 16.0417 57.6907 16.3233 57.1967 16.514C56.7027 16.7047 56.1567 16.8 55.5587 16.8H52.1397V7.726ZM55.5587 15.045C56.148 15.045 56.6117 14.8803 56.9497 14.551C57.2877 14.2217 57.4567 13.693 57.4567 12.965V11.561C57.4567 10.833 57.2877 10.3043 56.9497 9.97499C56.6117 9.64566 56.148 9.481 55.5587 9.481H54.1157V15.045H55.5587ZM63.4141 16.956C62.7555 16.956 62.2008 16.852 61.7501 16.644C61.2995 16.4273 60.8965 16.124 60.5411 15.734L61.6721 14.59C61.9148 14.8587 62.1835 15.071 62.4781 15.227C62.7728 15.383 63.1065 15.461 63.4791 15.461C63.8605 15.461 64.1248 15.4047 64.2721 15.292C64.4195 15.1707 64.4931 15.0103 64.4931 14.811C64.4931 14.4903 64.2635 14.2997 63.8041 14.239L63.0631 14.148C61.5291 13.9573 60.7621 13.2553 60.7621 12.042C60.7621 11.7127 60.8228 11.4137 60.9441 11.145C61.0741 10.8677 61.2518 10.6337 61.4771 10.443C61.7111 10.2437 61.9885 10.092 62.3091 9.98799C62.6385 9.87533 63.0068 9.819 63.4141 9.819C63.7695 9.819 64.0815 9.845 64.3501 9.897C64.6275 9.94033 64.8701 10.0097 65.0781 10.105C65.2948 10.1917 65.4898 10.3043 65.6631 10.443C65.8451 10.573 66.0228 10.7203 66.1961 10.885L65.0911 12.016C64.8745 11.7993 64.6275 11.6303 64.3501 11.509C64.0815 11.379 63.8041 11.314 63.5181 11.314C63.1888 11.314 62.9548 11.366 62.8161 11.47C62.6775 11.574 62.6081 11.7127 62.6081 11.886C62.6081 12.068 62.6558 12.211 62.7511 12.315C62.8551 12.4103 63.0458 12.4797 63.3231 12.523L64.0901 12.627C65.5895 12.8263 66.3391 13.511 66.3391 14.681C66.3391 15.0103 66.2698 15.3137 66.1311 15.591C65.9925 15.8683 65.7931 16.111 65.5331 16.319C65.2818 16.5183 64.9741 16.6743 64.6101 16.787C64.2548 16.8997 63.8561 16.956 63.4141 16.956ZM76.4172 16.8L75.7672 14.642H72.7382L72.0882 16.8H70.0862L73.0762 7.726H75.5202L78.4712 16.8H76.4172ZM74.2722 9.52H74.2072L73.2062 12.965H75.2862L74.2722 9.52ZM79.6226 16.8V9.97499H81.5466V11.457H81.6116C81.6463 11.2663 81.7069 11.0843 81.7936 10.911C81.8803 10.729 81.9929 10.5687 82.1316 10.43C82.2789 10.2913 82.4523 10.183 82.6516 10.105C82.8509 10.0183 83.0849 9.97499 83.3536 9.97499H83.6916V11.769H83.2106C82.6473 11.769 82.2269 11.8427 81.9496 11.99C81.6809 12.1373 81.5466 12.4103 81.5466 12.809V16.8H79.6226ZM84.8784 7.18H86.8024V11.119H86.8674C86.9628 10.7377 87.1794 10.4257 87.5174 10.183C87.8641 9.94033 88.2584 9.819 88.7004 9.819C89.5671 9.819 90.2214 10.1223 90.6634 10.729C91.1054 11.3357 91.3264 12.2197 91.3264 13.381C91.3264 14.5423 91.1054 15.4307 90.6634 16.046C90.2214 16.6527 89.5671 16.956 88.7004 16.956C88.4751 16.956 88.2628 16.9213 88.0634 16.852C87.8641 16.7913 87.6821 16.7047 87.5174 16.592C87.3614 16.4707 87.2271 16.332 87.1144 16.176C87.0018 16.0113 86.9194 15.838 86.8674 15.656H86.8024V16.8H84.8784V7.18ZM88.0634 15.396C88.4274 15.396 88.7264 15.2703 88.9604 15.019C89.2031 14.759 89.3244 14.4123 89.3244 13.979V12.796C89.3244 12.3627 89.2031 12.0203 88.9604 11.769C88.7264 11.509 88.4274 11.379 88.0634 11.379C87.6994 11.379 87.3961 11.47 87.1534 11.652C86.9194 11.8253 86.8024 12.068 86.8024 12.38V14.395C86.8024 14.707 86.9194 14.954 87.1534 15.136C87.3961 15.3093 87.6994 15.396 88.0634 15.396ZM93.7496 9.247C93.3596 9.247 93.0736 9.16033 92.8916 8.987C92.7183 8.805 92.6316 8.57533 92.6316 8.29799V8.01199C92.6316 7.73466 92.7183 7.50933 92.8916 7.33599C93.0736 7.154 93.3596 7.063 93.7496 7.063C94.1396 7.063 94.4213 7.154 94.5946 7.33599C94.7766 7.50933 94.8676 7.73466 94.8676 8.01199V8.29799C94.8676 8.57533 94.7766 8.805 94.5946 8.987C94.4213 9.16033 94.1396 9.247 93.7496 9.247ZM92.7876 9.97499H94.7116V16.8H92.7876V9.97499ZM98.8994 16.8C98.232 16.8 97.725 16.631 97.3784 16.293C97.0404 15.955 96.8714 15.461 96.8714 14.811V11.47H95.9094V9.97499H96.3904C96.6504 9.97499 96.828 9.91433 96.9234 9.79299C97.0187 9.663 97.0664 9.481 97.0664 9.247V8.12899H98.7954V9.97499H100.147V11.47H98.7954V15.305H100.043V16.8H98.8994ZM101.484 16.8V9.97499H103.408V11.457H103.473C103.508 11.2663 103.568 11.0843 103.655 10.911C103.742 10.729 103.854 10.5687 103.993 10.43C104.14 10.2913 104.314 10.183 104.513 10.105C104.712 10.0183 104.946 9.97499 105.215 9.97499H105.553V11.769H105.072C104.509 11.769 104.088 11.8427 103.811 11.99C103.542 12.1373 103.408 12.4103 103.408 12.809V16.8H101.484ZM110.77 15.656H110.705C110.644 15.8293 110.562 15.994 110.458 16.15C110.362 16.306 110.237 16.4447 110.081 16.566C109.925 16.6873 109.738 16.7827 109.522 16.852C109.314 16.9213 109.071 16.956 108.794 16.956C108.092 16.956 107.559 16.7263 107.195 16.267C106.839 15.799 106.662 15.1317 106.662 14.265V9.97499H108.586V14.096C108.586 14.512 108.659 14.8327 108.807 15.058C108.954 15.2833 109.205 15.396 109.561 15.396C109.708 15.396 109.855 15.3743 110.003 15.331C110.15 15.2877 110.28 15.227 110.393 15.149C110.505 15.0623 110.596 14.9583 110.666 14.837C110.735 14.7157 110.77 14.5727 110.77 14.408V9.97499H112.694V16.8H110.77V15.656ZM114.484 16.8V9.97499H116.408V11.132H116.486C116.607 10.768 116.815 10.4603 117.11 10.209C117.405 9.949 117.808 9.819 118.319 9.819C118.787 9.819 119.186 9.936 119.515 10.17C119.844 10.404 120.083 10.7463 120.23 11.197H120.269C120.33 11.0063 120.421 10.8287 120.542 10.664C120.672 10.4907 120.828 10.3433 121.01 10.222C121.192 10.1007 121.396 10.0053 121.621 9.936C121.846 9.858 122.089 9.819 122.349 9.819C123.008 9.819 123.51 10.053 123.857 10.521C124.212 10.989 124.39 11.6563 124.39 12.523V16.8H122.466V12.679C122.466 11.8123 122.154 11.379 121.53 11.379C121.244 11.379 120.984 11.4613 120.75 11.626C120.516 11.7907 120.399 12.042 120.399 12.38V16.8H118.475V12.679C118.475 11.8123 118.163 11.379 117.539 11.379C117.4 11.379 117.262 11.4007 117.123 11.444C116.993 11.4787 116.872 11.5393 116.759 11.626C116.655 11.7127 116.568 11.821 116.499 11.951C116.438 12.0723 116.408 12.2153 116.408 12.38V16.8H114.484Z" fill="#404B51"/>
<g clip-path="url(#clip3_1_125)">
<path d="M154.24 8.6V6.6C154.24 6.06957 154.029 5.56086 153.654 5.18579C153.279 4.81071 152.77 4.6 152.24 4.6H144.24C143.71 4.6 143.201 4.81071 142.826 5.18579C142.451 5.56086 142.24 6.06957 142.24 6.6V14.6C142.24 15.1304 142.451 15.6391 142.826 16.0142C143.201 16.3893 143.71 16.6 144.24 16.6H146.24M148.24 8.6H156.24C157.345 8.6 158.24 9.49543 158.24 10.6V18.6C158.24 19.7046 157.345 20.6 156.24 20.6H148.24C147.135 20.6 146.24 19.7046 146.24 18.6V10.6C146.24 9.49543 147.135 8.6 148.24 8.6Z" stroke="#707E85" stroke-width="2" stroke-linecap="round" stroke-linejoin="round"/>
</g>
<path d="M187.24 7.6H182.24C181.71 7.6 181.201 7.81071 180.826 8.18579C180.451 8.56086 180.24 9.06957 180.24 9.6V18.6C180.24 19.1304 180.451 19.6391 180.826 20.0142C181.201 20.3893 181.71 20.6 182.24 20.6H191.24C191.77 20.6 192.279 20.3893 192.654 20.0142C193.029 19.6391 193.24 19.1304 193.24 18.6V13.6M186.24 14.6L196.24 4.6M196.24 4.6H191.24M196.24 4.6V9.6" stroke="#707E85" stroke-width="2" stroke-linecap="round" stroke-linejoin="round"/>
<g clip-path="url(#clip4_1_125)">
<path d="M316.005 71.1699C315.58 71.4296 315.084 71.4768 314.706 71.2643C314.234 70.9809 313.95 70.3434 313.95 69.4696V66.8013C313.95 65.5261 313.455 64.6052 312.604 64.369C311.164 63.944 310.078 65.715 309.676 66.3762L307.126 70.4614V65.4316C307.102 64.2746 306.725 63.5898 306.016 63.3772C305.544 63.2355 304.835 63.3064 304.151 64.3454L298.46 73.4604C297.704 72.02 297.302 70.4142 297.302 68.7848C297.302 63.2828 301.718 58.8197 307.126 58.8197C312.534 58.8197 316.949 63.2828 316.949 68.7848V68.8085V68.8321C316.997 69.8947 316.666 70.7448 316.005 71.1699ZM319.122 68.7848V68.7612V68.7376C319.098 62.0548 313.714 56.6 307.126 56.6C300.514 56.6 295.13 62.0548 295.13 68.7848C295.13 75.4912 300.514 80.9697 307.126 80.9697C310.172 80.9697 313.053 79.8126 315.273 77.7109C315.721 77.2859 315.745 76.6011 315.32 76.1524C314.919 75.7038 314.234 75.6801 313.785 76.0816C313.785 76.0816 313.785 76.0816 313.762 76.1052C311.967 77.8054 309.558 78.7736 307.079 78.7736C304.174 78.7736 301.577 77.4984 299.782 75.4676L304.906 67.2499V71.0518C304.906 72.8701 305.615 73.4604 306.205 73.6257C306.795 73.791 307.693 73.6729 308.661 72.138L311.471 67.5805C311.565 67.4388 311.636 67.2972 311.731 67.2027V69.5169C311.731 71.2171 312.416 72.5867 313.596 73.2479C314.659 73.8619 316.005 73.791 317.115 73.1062C318.484 72.2089 319.216 70.6503 319.122 68.7848Z" fill="#85939A"/>
</g>
<g clip-path="url(#clip5_1_125)">
<path fill-rule="evenodd" clip-rule="evenodd" d="M349.114 56.6001C355.765 56.6001 361.13 61.9648 361.13 68.6472C361.13 75.2354 355.703 80.6629 349.02 80.6315C342.557 80.5688 337.13 75.2354 337.13 68.6158C337.13 61.9648 342.463 56.5688 349.114 56.6001ZM339.985 74.8903C339.985 75.0158 340.048 75.0786 340.11 75.1727C340.581 75.8315 341.114 76.459 341.742 76.9923C342.024 77.2433 342.306 77.4943 342.62 77.7139C343.499 78.2786 344.408 78.8119 345.412 79.157C346.228 79.4394 347.075 79.659 347.922 79.7531C348.581 79.8158 349.271 79.8472 349.93 79.7531C350.307 79.6903 350.714 79.6903 351.091 79.5335C351.154 79.5648 351.185 79.5021 351.216 79.5021C352.001 79.3766 352.754 79.1256 353.507 78.8119C355.954 77.7452 357.805 76.0197 358.997 73.6354C360.063 71.5335 360.408 69.306 360.063 66.9844C359.75 64.757 358.808 62.8119 357.303 61.1805C355.295 58.8903 352.722 57.6982 349.679 57.5099C348.33 57.4158 346.981 57.6041 345.695 58.0433C343.593 58.7335 341.867 59.9256 340.455 61.6511C338.855 63.6276 338.071 65.8864 337.977 68.3962C337.946 69.0237 338.008 69.6197 338.103 70.2472C338.291 71.659 338.761 73.008 339.483 74.2315C339.671 74.4197 339.797 74.6707 339.985 74.8903Z" fill="#85939A"/>
<path fill-rule="evenodd" clip-rule="evenodd" d="M351.091 79.5023C350.714 79.6905 350.307 79.6905 349.93 79.7219C349.271 79.816 348.581 79.7846 347.922 79.7219C347.075 79.6278 346.228 79.4081 345.412 79.1258C344.409 78.7807 343.499 78.2474 342.62 77.6827C342.307 77.4631 342.024 77.2121 341.742 76.9611C341.114 76.4278 340.581 75.8003 340.11 75.1415C340.048 75.0474 339.985 74.9533 339.985 74.8591C340.738 73.165 341.02 71.3768 341.177 69.5572C341.24 68.7101 341.271 67.8631 341.428 67.016C341.585 66.0435 341.961 65.165 342.652 64.4121C343.279 63.7533 344.063 63.314 344.91 63.0003C345.601 62.718 346.322 62.467 347.107 62.4356C347.828 62.4042 348.518 62.4984 349.209 62.6552C350.244 62.9062 351.279 63.2199 352.252 63.6905C353.036 64.0042 353.852 64.318 354.667 64.5689C355.514 64.8199 356.362 65.1023 357.083 65.6356C357.993 66.3258 358.244 67.2042 357.836 68.2709C357.585 68.9297 357.114 69.4317 356.644 69.9336C355.797 70.8121 354.887 71.6278 354.071 72.5376C353.13 73.6356 352.283 74.765 351.687 76.0827C351.185 77.1807 350.903 78.3101 351.091 79.5023ZM357.146 69.1807C357.114 69.1807 357.083 69.1807 357.052 69.2121C357.02 69.2121 356.989 69.2434 356.989 69.2748C356.989 69.2748 356.989 69.2748 356.989 69.3062C357.02 69.3062 357.052 69.2748 357.052 69.2434L357.146 69.1807C357.209 69.1807 357.177 69.1807 357.146 69.1807ZM347.546 63.7219C346.354 63.7219 345.381 64.6944 345.381 65.8552C345.381 67.0474 346.354 67.9885 347.514 68.0199C348.707 68.0199 349.648 67.0474 349.679 65.8552C349.679 64.6631 348.738 63.7219 347.546 63.7219ZM349.303 70.3101C349.491 70.5925 349.836 70.8434 350.244 70.9689C351.06 71.2513 351.875 71.2513 352.691 71.0944C354.134 70.8121 355.483 70.3101 356.707 69.4944C356.769 69.4317 356.895 69.4317 356.926 69.3062C356.863 69.2748 356.832 69.3062 356.801 69.3376C356.393 69.5885 355.954 69.7768 355.514 69.965C354.385 70.4356 353.193 70.7493 351.938 70.8121C351.028 70.8748 350.118 70.8121 349.303 70.3101ZM355.232 68.4591C355.483 68.4591 355.703 68.2395 355.703 67.9572C355.703 67.7062 355.483 67.4866 355.201 67.518C354.95 67.518 354.762 67.7376 354.762 67.9885C354.762 68.2709 354.95 68.4591 355.232 68.4591Z" fill="#85939A"/>
<path fill-rule="evenodd" clip-rule="evenodd" d="M349.177 62.6551C348.487 62.5296 347.797 62.4041 347.075 62.4355C346.291 62.4669 345.601 62.7179 344.879 63.0002C344.032 63.3139 343.248 63.7532 342.62 64.412C341.93 65.1336 341.554 66.012 341.397 67.0159C341.271 67.863 341.24 68.71 341.146 69.5571C340.989 71.3767 340.707 73.1963 339.954 74.859C339.734 74.6708 339.609 74.3885 339.483 74.1688C338.761 72.9453 338.291 71.5963 338.103 70.1845C338.009 69.5571 337.946 68.961 337.977 68.3336C338.071 65.8238 338.856 63.5649 340.456 61.5885C341.836 59.863 343.593 58.6708 345.695 57.9806C346.981 57.5728 348.33 57.3845 349.679 57.4473C352.691 57.6355 355.263 58.859 357.303 61.0865C358.809 62.7492 359.718 64.6943 360.063 66.8904C360.409 69.212 360.063 71.4394 358.997 73.5414C357.805 75.9257 355.954 77.6512 353.507 78.7179C352.785 79.0316 352.032 79.2826 351.216 79.4081C351.154 79.4081 351.122 79.5022 351.091 79.4394C350.903 78.2473 351.185 77.1179 351.656 76.0198C352.252 74.7022 353.099 73.5728 354.04 72.4747C354.824 71.5649 355.734 70.7179 356.612 69.8708C357.114 69.3688 357.554 68.8669 357.805 68.2081C358.244 67.1414 357.993 66.263 357.052 65.5728C356.33 65.0394 355.483 64.7571 354.636 64.5061C353.82 64.2551 353.005 63.9414 352.22 63.6277C352.063 63.0943 351.687 62.7492 351.185 62.561C350.526 62.4041 349.867 62.4669 349.177 62.6551ZM359.436 69.3375H359.499C359.624 68.8983 359.624 68.4277 359.624 67.9571C359.624 67.4237 359.562 66.8904 359.467 66.3571C359.122 64.6316 358.338 63.1257 357.114 61.8394C356.362 61.0551 355.514 60.3963 354.667 59.7061C353.914 59.0787 353.099 58.6081 352.158 58.3571C351.248 58.1375 350.369 58.012 349.428 58.1688C349.365 58.1688 349.303 58.1688 349.303 58.2316C349.303 58.2943 349.365 58.2943 349.428 58.2943C350.809 58.5453 352.126 58.9845 353.412 59.4865C354.667 59.9885 355.734 60.71 356.518 61.8394C357.052 62.6238 357.554 63.4394 357.962 64.3179C358.495 65.51 358.903 66.7335 359.154 67.9885C359.279 68.4904 359.373 68.8983 359.436 69.3375Z" fill="white"/>
<path fill-rule="evenodd" clip-rule="evenodd" d="M347.546 63.7218C348.738 63.7218 349.679 64.6944 349.679 65.8552C349.679 67.0473 348.707 67.9885 347.514 68.0199C346.322 68.0199 345.381 67.0473 345.381 65.8552C345.381 64.663 346.354 63.7218 347.546 63.7218ZM349.052 65.8865C349.052 65.0395 348.393 64.3807 347.546 64.3807C346.699 64.3807 346.04 65.0395 346.04 65.8865C346.04 66.7022 346.699 67.3924 347.514 67.3924H347.546C348.362 67.3924 349.02 66.7336 349.052 65.8865Z" fill="#FCFDFB"/>
<path fill-rule="evenodd" clip-rule="evenodd" d="M349.303 70.3101C350.118 70.8121 351.028 70.8748 351.938 70.8434C353.193 70.7807 354.385 70.4983 355.514 69.9964C355.954 69.8081 356.393 69.6199 356.801 69.3689C356.832 69.3375 356.863 69.3062 356.926 69.3375C356.895 69.4317 356.801 69.463 356.707 69.5258C355.483 70.3415 354.134 70.8434 352.691 71.1258C351.875 71.2826 351.028 71.2826 350.244 71.0003C349.836 70.8434 349.46 70.5924 349.303 70.3101ZM349.177 62.6552C349.836 62.467 350.526 62.4042 351.185 62.6552C351.687 62.8434 352.063 63.1885 352.22 63.7219C351.279 63.2199 350.244 62.9062 349.177 62.6552Z" fill="#85939A"/>
<path fill-rule="evenodd" clip-rule="evenodd" d="M355.232 68.4591C354.981 68.4591 354.762 68.2395 354.762 67.9886C354.762 67.7376 354.95 67.518 355.201 67.518C355.452 67.518 355.671 67.7062 355.703 67.9572C355.671 68.2395 355.483 68.4591 355.232 68.4591Z" fill="#FCFDFB"/>
<path fill-rule="evenodd" clip-rule="evenodd" d="M357.052 69.2433C357.052 69.2747 357.02 69.3061 356.989 69.3061C356.989 69.2433 357.02 69.2119 357.052 69.2433ZM357.146 69.1806L357.052 69.2433L357.02 69.2119C357.083 69.1806 357.114 69.1806 357.146 69.1806Z" fill="#85939A"/>
<path fill-rule="evenodd" clip-rule="evenodd" d="M359.436 69.3375C359.342 68.8983 359.248 68.4904 359.185 68.0512C358.934 66.765 358.495 65.5414 357.993 64.3806C357.616 63.5022 357.114 62.6865 356.55 61.9022C355.765 60.7728 354.73 60.0512 353.444 59.5493C352.126 59.0473 350.84 58.5767 349.46 58.3571C349.397 58.3571 349.334 58.3571 349.334 58.2944C349.334 58.2316 349.397 58.2316 349.46 58.2316C350.369 58.0748 351.279 58.1689 352.189 58.4199C353.13 58.6708 353.946 59.1728 354.699 59.7689C355.546 60.4591 356.393 61.1179 357.146 61.9022C358.369 63.1885 359.154 64.6944 359.499 66.4199C359.593 66.9532 359.656 67.4865 359.656 68.0199C359.656 68.4591 359.656 68.9297 359.53 69.4002L359.436 69.3375Z" fill="#FFFEFC"/>
<path fill-rule="evenodd" clip-rule="evenodd" d="M349.052 65.8863C349.052 66.702 348.393 67.3922 347.577 67.3922H347.546C346.73 67.3922 346.04 66.7333 346.04 65.8863V65.8549C346.04 65.0079 346.73 64.349 347.546 64.349C348.362 64.349 349.052 65.0392 349.052 65.8863Z" fill="#85939A"/>
</g>
<g clip-path="url(#clip6_1_125)">
<path d="M295.13 12.6C295.13 5.97258 300.503 0.599998 307.13 0.599998C313.757 0.599998 319.13 5.97258 319.13 12.6C319.13 19.2274 313.757 24.6 307.13 24.6C300.503 24.6 295.13 19.2274 295.13 12.6Z" fill="url(#paint0_linear_1_125)"/>
<path fill-rule="evenodd" clip-rule="evenodd" d="M310.291 13.5825C307.999 13.5825 306.142 11.7256 306.142 9.43672C306.142 8.23837 305.175 7.26669 303.969 7.26669C302.774 7.26669 301.797 8.23837 301.797 9.43672C301.797 10.6351 302.763 11.6068 303.969 11.6068H303.98C306.261 11.6068 308.108 13.4637 308.118 15.7525V15.7633C308.118 16.9617 309.085 17.9333 310.291 17.9333C311.497 17.9333 312.463 16.9617 312.463 15.7633C312.452 14.5541 311.486 13.5825 310.291 13.5825Z" fill="url(#paint1_linear_1_125)"/>
<path fill-rule="evenodd" clip-rule="evenodd" d="M303.98 13.5826C302.785 13.5826 301.808 14.5542 301.808 15.7525C301.808 16.951 302.774 17.9226 303.98 17.9226C305.186 17.9226 306.152 16.951 306.152 15.7525C306.142 14.5542 305.175 13.5826 303.98 13.5826Z" fill="url(#paint2_linear_1_125)"/>
<path fill-rule="evenodd" clip-rule="evenodd" d="M310.291 7.26669C311.491 7.26669 312.463 8.23822 312.463 9.43672C312.463 10.6352 311.491 11.6068 310.291 11.6068C309.091 11.6068 308.118 10.6352 308.118 9.43672C308.118 8.23822 309.091 7.26669 310.291 7.26669Z" fill="url(#paint3_linear_1_125)"/>
</g>
<path d="M333.069 16.956C332.272 16.956 331.596 16.8217 331.041 16.553C330.486 16.2757 330.014 15.9203 329.624 15.487L330.924 14.174C331.539 14.8673 332.298 15.214 333.199 15.214C333.684 15.214 334.044 15.1143 334.278 14.915C334.512 14.7157 334.629 14.4513 334.629 14.122C334.629 13.8707 334.56 13.6627 334.421 13.498C334.282 13.3247 334.001 13.2077 333.576 13.147L332.679 13.03C331.717 12.9087 331.011 12.6183 330.56 12.159C330.118 11.6997 329.897 11.0887 329.897 10.326C329.897 9.91866 329.975 9.546 330.131 9.20799C330.287 8.86999 330.508 8.57966 330.794 8.337C331.089 8.09433 331.444 7.908 331.86 7.778C332.285 7.63933 332.766 7.56999 333.303 7.56999C333.988 7.56999 334.59 7.67833 335.11 7.89499C335.63 8.11166 336.076 8.42799 336.449 8.84399L335.136 10.17C334.919 9.91866 334.655 9.71499 334.343 9.55899C334.04 9.39433 333.654 9.31199 333.186 9.31199C332.744 9.31199 332.415 9.38999 332.198 9.546C331.981 9.702 331.873 9.91866 331.873 10.196C331.873 10.508 331.955 10.7333 332.12 10.872C332.293 11.0107 332.571 11.1103 332.952 11.171L333.849 11.314C334.785 11.4613 335.478 11.7517 335.929 12.185C336.38 12.6097 336.605 13.2163 336.605 14.005C336.605 14.4383 336.527 14.837 336.371 15.201C336.215 15.565 335.985 15.877 335.682 16.137C335.387 16.397 335.019 16.6007 334.577 16.748C334.135 16.8867 333.632 16.956 333.069 16.956ZM338.243 16.8V7.726H342.533C342.958 7.726 343.339 7.79966 343.677 7.94699C344.015 8.08566 344.301 8.28066 344.535 8.53199C344.778 8.78333 344.964 9.09099 345.094 9.455C345.224 9.81033 345.289 10.2003 345.289 10.625C345.289 11.0583 345.224 11.4527 345.094 11.808C344.964 12.1633 344.778 12.4667 344.535 12.718C344.301 12.9693 344.015 13.1687 343.677 13.316C343.339 13.4547 342.958 13.524 342.533 13.524H340.219V16.8H338.243ZM340.219 11.808H342.299C342.594 11.808 342.824 11.7343 342.988 11.587C343.162 11.431 343.248 11.2057 343.248 10.911V10.339C343.248 10.0443 343.162 9.82333 342.988 9.67599C342.824 9.51999 342.594 9.44199 342.299 9.44199H340.219V11.808ZM351.412 16.8L350.762 14.642H347.733L347.083 16.8H345.081L348.071 7.726H350.515L353.466 16.8H351.412ZM349.267 9.52H349.202L348.201 12.965H350.281L349.267 9.52ZM363.384 16.8L362.734 14.642H359.705L359.055 16.8H357.053L360.043 7.726H362.487L365.438 16.8H363.384ZM361.239 9.52H361.174L360.173 12.965H362.253L361.239 9.52ZM366.59 16.8V9.97499H368.514V11.457H368.579C368.613 11.2663 368.674 11.0843 368.761 10.911C368.847 10.729 368.96 10.5687 369.099 10.43C369.246 10.2913 369.419 10.183 369.619 10.105C369.818 10.0183 370.052 9.97499 370.321 9.97499H370.659V11.769H370.178C369.614 11.769 369.194 11.8427 368.917 11.99C368.648 12.1373 368.514 12.4103 368.514 12.809V16.8H366.59ZM371.845 7.18H373.769V11.119H373.834C373.93 10.7377 374.146 10.4257 374.484 10.183C374.831 9.94033 375.225 9.819 375.667 9.819C376.534 9.819 377.188 10.1223 377.63 10.729C378.072 11.3357 378.293 12.2197 378.293 13.381C378.293 14.5423 378.072 15.4307 377.63 16.046C377.188 16.6527 376.534 16.956 375.667 16.956C375.442 16.956 375.23 16.9213 375.03 16.852C374.831 16.7913 374.649 16.7047 374.484 16.592C374.328 16.4707 374.194 16.332 374.081 16.176C373.969 16.0113 373.886 15.838 373.834 15.656H373.769V16.8H371.845V7.18ZM375.03 15.396C375.394 15.396 375.693 15.2703 375.927 15.019C376.17 14.759 376.291 14.4123 376.291 13.979V12.796C376.291 12.3627 376.17 12.0203 375.927 11.769C375.693 11.509 375.394 11.379 375.03 11.379C374.666 11.379 374.363 11.47 374.12 11.652C373.886 11.8253 373.769 12.068 373.769 12.38V14.395C373.769 14.707 373.886 14.954 374.12 15.136C374.363 15.3093 374.666 15.396 375.03 15.396ZM380.717 9.247C380.327 9.247 380.041 9.16033 379.859 8.987C379.685 8.805 379.599 8.57533 379.599 8.29799V8.01199C379.599 7.73466 379.685 7.50933 379.859 7.33599C380.041 7.154 380.327 7.063 380.717 7.063C381.107 7.063 381.388 7.154 381.562 7.33599C381.744 7.50933 381.835 7.73466 381.835 8.01199V8.29799C381.835 8.57533 381.744 8.805 381.562 8.987C381.388 9.16033 381.107 9.247 380.717 9.247ZM379.755 9.97499H381.679V16.8H379.755V9.97499ZM385.866 16.8C385.199 16.8 384.692 16.631 384.345 16.293C384.007 15.955 383.838 15.461 383.838 14.811V11.47H382.876V9.97499H383.357C383.617 9.97499 383.795 9.91433 383.89 9.79299C383.986 9.663 384.033 9.481 384.033 9.247V8.12899H385.762V9.97499H387.114V11.47H385.762V15.305H387.01V16.8H385.866ZM388.451 16.8V9.97499H390.375V11.457H390.44C390.474 11.2663 390.535 11.0843 390.622 10.911C390.708 10.729 390.821 10.5687 390.96 10.43C391.107 10.2913 391.28 10.183 391.48 10.105C391.679 10.0183 391.913 9.97499 392.182 9.97499H392.52V11.769H392.039C391.475 11.769 391.055 11.8427 390.778 11.99C390.509 12.1373 390.375 12.4103 390.375 12.809V16.8H388.451ZM397.737 15.656H397.672C397.611 15.8293 397.529 15.994 397.425 16.15C397.329 16.306 397.204 16.4447 397.048 16.566C396.892 16.6873 396.705 16.7827 396.489 16.852C396.281 16.9213 396.038 16.956 395.761 16.956C395.059 16.956 394.526 16.7263 394.162 16.267C393.806 15.799 393.629 15.1317 393.629 14.265V9.97499H395.553V14.096C395.553 14.512 395.626 14.8327 395.774 15.058C395.921 15.2833 396.172 15.396 396.528 15.396C396.675 15.396 396.822 15.3743 396.97 15.331C397.117 15.2877 397.247 15.227 397.36 15.149C397.472 15.0623 397.563 14.9583 397.633 14.837C397.702 14.7157 397.737 14.5727 397.737 14.408V9.97499H399.661V16.8H397.737V15.656ZM401.451 16.8V9.97499H403.375V11.132H403.453C403.574 10.768 403.782 10.4603 404.077 10.209C404.371 9.949 404.774 9.819 405.286 9.819C405.754 9.819 406.152 9.936 406.482 10.17C406.811 10.404 407.049 10.7463 407.197 11.197H407.236C407.296 11.0063 407.388 10.8287 407.509 10.664C407.639 10.4907 407.795 10.3433 407.977 10.222C408.159 10.1007 408.362 10.0053 408.588 9.936C408.813 9.858 409.056 9.819 409.316 9.819C409.975 9.819 410.477 10.053 410.824 10.521C411.179 10.989 411.357 11.6563 411.357 12.523V16.8H409.433V12.679C409.433 11.8123 409.121 11.379 408.497 11.379C408.211 11.379 407.951 11.4613 407.717 11.626C407.483 11.7907 407.366 12.042 407.366 12.38V16.8H405.442V12.679C405.442 11.8123 405.13 11.379 404.506 11.379C404.367 11.379 404.228 11.4007 404.09 11.444C403.96 11.4787 403.838 11.5393 403.726 11.626C403.622 11.7127 403.535 11.821 403.466 11.951C403.405 12.0723 403.375 12.2153 403.375 12.38V16.8H401.451Z" fill="#404B51"/>
<g clip-path="url(#clip7_1_125)">
<path d="M431.91 9.6L437.91 15.6L443.91 9.6" stroke="#1B2022" stroke-width="2" stroke-linecap="round" stroke-linejoin="round"/>
</g>
<g clip-path="url(#clip8_1_125)">
<path d="M469.91 8.6V6.6C469.91 6.06957 469.699 5.56086 469.324 5.18579C468.949 4.81071 468.44 4.6 467.91 4.6H459.91C459.38 4.6 458.871 4.81071 458.496 5.18579C458.121 5.56086 457.91 6.06957 457.91 6.6V14.6C457.91 15.1304 458.121 15.6391 458.496 16.0142C458.871 16.3893 459.38 16.6 459.91 16.6H461.91M463.91 8.6H471.91C473.015 8.6 473.91 9.49543 473.91 10.6V18.6C473.91 19.7046 473.015 20.6 471.91 20.6H463.91C462.805 20.6 461.91 19.7046 461.91 18.6V10.6C461.91 9.49543 462.805 8.6 463.91 8.6Z" stroke="#707E85" stroke-width="2" stroke-linecap="round" stroke-linejoin="round"/>
</g>
<path d="M502.91 7.6H497.91C497.38 7.6 496.871 7.81071 496.496 8.18579C496.121 8.56086 495.91 9.06957 495.91 9.6V18.6C495.91 19.1304 496.121 19.6391 496.496 20.0142C496.871 20.3893 497.38 20.6 497.91 20.6H506.91C507.44 20.6 507.949 20.3893 508.324 20.0142C508.699 19.6391 508.91 19.1304 508.91 18.6V13.6M501.91 14.6L511.91 4.6M511.91 4.6H506.91M511.91 4.6V9.6" stroke="#707E85" stroke-width="2" stroke-linecap="round" stroke-linejoin="round"/>
<g clip-path="url(#clip9_1_125)">
<path d="M634.8 12.6C634.8 5.97258 629.427 0.599998 622.8 0.599998C616.173 0.599998 610.8 5.97258 610.8 12.6C610.8 19.2274 616.173 24.6 622.8 24.6C629.427 24.6 634.8 19.2274 634.8 12.6Z" fill="#31C1BF"/>
<path fill-rule="evenodd" clip-rule="evenodd" d="M626.356 13.7053C623.778 13.7053 621.688 11.6162 621.688 9.04132C621.688 7.69314 620.6 6.60002 619.244 6.60002C617.9 6.60002 616.8 7.69314 616.8 9.04132C616.8 10.3895 617.888 11.4826 619.244 11.4826H619.256C621.822 11.4826 623.9 13.5717 623.912 16.1466V16.1587C623.912 17.5069 625 18.6 626.356 18.6C627.712 18.6 628.8 17.5069 628.8 16.1587C628.788 14.7984 627.7 13.7053 626.356 13.7053Z" fill="white"/>
<path fill-rule="evenodd" clip-rule="evenodd" d="M619.256 13.7053C617.912 13.7053 616.812 14.7984 616.812 16.1466C616.812 17.4948 617.9 18.5879 619.256 18.5879C620.613 18.5879 621.7 17.4948 621.7 16.1466C621.688 14.7984 620.6 13.7053 619.256 13.7053Z" fill="white"/>
<path fill-rule="evenodd" clip-rule="evenodd" d="M626.356 6.6C627.706 6.6 628.8 7.69298 628.8 9.04125C628.8 10.3896 627.706 11.4826 626.356 11.4826C625.006 11.4826 623.912 10.3896 623.912 9.04125C623.912 7.69298 625.006 6.6 626.356 6.6Z" fill="white"/>
<path d="M628.8 24.6C632.114 24.6 634.8 21.9137 634.8 18.6C634.8 15.2863 632.114 12.6 628.8 12.6C625.486 12.6 622.8 15.2863 622.8 18.6C622.8 21.9137 625.486 24.6 628.8 24.6Z" fill="#1B2022"/>
<path d="M628.603 17.4622C628.677 17.3868 628.795 17.3824 628.877 17.4478C628.968 17.5196 628.984 17.6506 628.915 17.743C628.185 18.7197 627.687 19.5403 627.42 20.205C627.324 20.439 627.186 20.556 627.006 20.556C626.892 20.556 626.79 20.496 626.7 20.376C626.616 20.256 626.559 20.148 626.529 20.052C626.505 19.95 626.463 19.74 626.403 19.422C626.343 19.104 626.277 18.774 626.205 18.432C626.133 18.084 626.073 17.826 626.025 17.658C625.983 17.484 625.953 17.37 625.935 17.316C625.923 17.262 625.899 17.217 625.863 17.181C625.834 17.1469 625.858 17.1053 625.902 17.1094L626.237 17.1403C626.328 17.1487 626.407 17.2068 626.439 17.2918C626.588 17.6791 626.708 18.0952 626.799 18.54C626.823 18.642 626.865 18.849 626.925 19.161C626.985 19.467 627.033 19.707 627.069 19.881C627.399 19.245 627.687 18.729 627.933 18.333C628.146 17.9935 628.369 17.7033 628.603 17.4622Z" fill="white"/>
<path d="M631.635 19.5553C631.692 19.5193 631.766 19.522 631.819 19.5634C631.885 19.6151 631.899 19.7103 631.844 19.7743C631.669 19.9807 631.445 20.1573 631.172 20.304C630.848 20.472 630.533 20.556 630.227 20.556C629.921 20.556 629.675 20.466 629.489 20.286C629.303 20.106 629.21 19.869 629.21 19.575C629.21 19.023 629.501 18.48 630.083 17.946C630.671 17.412 631.265 17.145 631.865 17.145C632.261 17.145 632.459 17.301 632.459 17.613C632.459 17.937 632.249 18.264 631.829 18.594C631.415 18.924 630.83 19.224 630.074 19.494C630.128 19.632 630.212 19.74 630.326 19.818C630.44 19.896 630.557 19.935 630.677 19.935C630.916 19.935 631.236 19.8084 631.635 19.5553ZM630.029 19.224C630.515 19.056 630.932 18.846 631.28 18.594C631.628 18.342 631.802 18.111 631.802 17.901C631.802 17.823 631.772 17.754 631.712 17.694C631.652 17.634 631.583 17.604 631.505 17.604C631.223 17.604 630.917 17.781 630.587 18.135C630.263 18.483 630.077 18.846 630.029 19.224Z" fill="white"/>
</g>
<path d="M647.153 16.8L644.917 9.97499H646.815L647.66 12.731L648.297 15.201H648.401L649.038 12.731L649.857 9.97499H651.677L649.441 16.8H647.153ZM655.438 16.956C654.918 16.956 654.454 16.8737 654.047 16.709C653.639 16.5357 653.293 16.2973 653.007 15.994C652.729 15.682 652.517 15.305 652.37 14.863C652.231 14.421 652.162 13.927 652.162 13.381C652.162 12.8437 652.231 12.3583 652.37 11.925C652.508 11.483 652.712 11.106 652.981 10.794C653.258 10.482 653.596 10.2437 653.995 10.079C654.393 9.90566 654.848 9.819 655.36 9.819C655.923 9.819 656.404 9.91433 656.803 10.105C657.21 10.2957 657.539 10.5513 657.791 10.872C658.051 11.1927 658.237 11.5653 658.35 11.99C658.471 12.406 658.532 12.8437 658.532 13.303V13.875H654.151V13.979C654.151 14.4297 654.272 14.7893 654.515 15.058C654.757 15.318 655.139 15.448 655.659 15.448C656.057 15.448 656.382 15.37 656.634 15.214C656.885 15.0493 657.119 14.8543 657.336 14.629L658.298 15.825C657.994 16.1803 657.596 16.4577 657.102 16.657C656.616 16.8563 656.062 16.956 655.438 16.956ZM655.399 11.236C655.009 11.236 654.701 11.366 654.476 11.626C654.259 11.8773 654.151 12.2153 654.151 12.64V12.744H656.543V12.627C656.543 12.211 656.447 11.8773 656.257 11.626C656.075 11.366 655.789 11.236 655.399 11.236ZM662.805 16.956C662.008 16.956 661.332 16.8217 660.777 16.553C660.223 16.2757 659.75 15.9203 659.36 15.487L660.66 14.174C661.276 14.8673 662.034 15.214 662.935 15.214C663.421 15.214 663.78 15.1143 664.014 14.915C664.248 14.7157 664.365 14.4513 664.365 14.122C664.365 13.8707 664.296 13.6627 664.157 13.498C664.019 13.3247 663.737 13.2077 663.312 13.147L662.415 13.03C661.453 12.9087 660.747 12.6183 660.296 12.159C659.854 11.6997 659.633 11.0887 659.633 10.326C659.633 9.91866 659.711 9.546 659.867 9.20799C660.023 8.86999 660.244 8.57966 660.53 8.337C660.825 8.09433 661.18 7.908 661.596 7.778C662.021 7.63933 662.502 7.56999 663.039 7.56999C663.724 7.56999 664.326 7.67833 664.846 7.89499C665.366 8.11166 665.813 8.42799 666.185 8.84399L664.872 10.17C664.656 9.91866 664.391 9.71499 664.079 9.55899C663.776 9.39433 663.39 9.31199 662.922 9.31199C662.48 9.31199 662.151 9.38999 661.934 9.546C661.718 9.702 661.609 9.91866 661.609 10.196C661.609 10.508 661.692 10.7333 661.856 10.872C662.03 11.0107 662.307 11.1103 662.688 11.171L663.585 11.314C664.521 11.4613 665.215 11.7517 665.665 12.185C666.116 12.6097 666.341 13.2163 666.341 14.005C666.341 14.4383 666.263 14.837 666.107 15.201C665.951 15.565 665.722 15.877 665.418 16.137C665.124 16.397 664.755 16.6007 664.313 16.748C663.871 16.8867 663.369 16.956 662.805 16.956ZM667.98 16.8V7.726H672.27C672.694 7.726 673.076 7.79966 673.414 7.94699C673.752 8.08566 674.038 8.28066 674.272 8.53199C674.514 8.78333 674.701 9.09099 674.831 9.455C674.961 9.81033 675.026 10.2003 675.026 10.625C675.026 11.0583 674.961 11.4527 674.831 11.808C674.701 12.1633 674.514 12.4667 674.272 12.718C674.038 12.9693 673.752 13.1687 673.414 13.316C673.076 13.4547 672.694 13.524 672.27 13.524H669.956V16.8H667.98ZM669.956 11.808H672.036C672.33 11.808 672.56 11.7343 672.725 11.587C672.898 11.431 672.985 11.2057 672.985 10.911V10.339C672.985 10.0443 672.898 9.82333 672.725 9.67599C672.56 9.51999 672.33 9.44199 672.036 9.44199H669.956V11.808ZM681.149 16.8L680.499 14.642H677.47L676.82 16.8H674.818L677.808 7.726H680.252L683.203 16.8H681.149ZM679.004 9.52H678.939L677.938 12.965H680.018L679.004 9.52ZM693.12 16.8L692.47 14.642H689.441L688.791 16.8H686.789L689.779 7.726H692.223L695.174 16.8H693.12ZM690.975 9.52H690.91L689.909 12.965H691.989L690.975 9.52ZM696.326 16.8V9.97499H698.25V11.457H698.315C698.35 11.2663 698.41 11.0843 698.497 10.911C698.584 10.729 698.696 10.5687 698.835 10.43C698.982 10.2913 699.156 10.183 699.355 10.105C699.554 10.0183 699.788 9.97499 700.057 9.97499H700.395V11.769H699.914C699.351 11.769 698.93 11.8427 698.653 11.99C698.384 12.1373 698.25 12.4103 698.25 12.809V16.8H696.326ZM701.582 7.18H703.506V11.119H703.571C703.666 10.7377 703.883 10.4257 704.221 10.183C704.567 9.94033 704.962 9.819 705.404 9.819C706.27 9.819 706.925 10.1223 707.367 10.729C707.809 11.3357 708.03 12.2197 708.03 13.381C708.03 14.5423 707.809 15.4307 707.367 16.046C706.925 16.6527 706.27 16.956 705.404 16.956C705.178 16.956 704.966 16.9213 704.767 16.852C704.567 16.7913 704.385 16.7047 704.221 16.592C704.065 16.4707 703.93 16.332 703.818 16.176C703.705 16.0113 703.623 15.838 703.571 15.656H703.506V16.8H701.582V7.18ZM704.767 15.396C705.131 15.396 705.43 15.2703 705.664 15.019C705.906 14.759 706.028 14.4123 706.028 13.979V12.796C706.028 12.3627 705.906 12.0203 705.664 11.769C705.43 11.509 705.131 11.379 704.767 11.379C704.403 11.379 704.099 11.47 703.857 11.652C703.623 11.8253 703.506 12.068 703.506 12.38V14.395C703.506 14.707 703.623 14.954 703.857 15.136C704.099 15.3093 704.403 15.396 704.767 15.396ZM710.453 9.247C710.063 9.247 709.777 9.16033 709.595 8.987C709.422 8.805 709.335 8.57533 709.335 8.29799V8.01199C709.335 7.73466 709.422 7.50933 709.595 7.33599C709.777 7.154 710.063 7.063 710.453 7.063C710.843 7.063 711.125 7.154 711.298 7.33599C711.48 7.50933 711.571 7.73466 711.571 8.01199V8.29799C711.571 8.57533 711.48 8.805 711.298 8.987C711.125 9.16033 710.843 9.247 710.453 9.247ZM709.491 9.97499H711.415V16.8H709.491V9.97499ZM715.603 16.8C714.935 16.8 714.428 16.631 714.082 16.293C713.744 15.955 713.575 15.461 713.575 14.811V11.47H712.613V9.97499H713.094C713.354 9.97499 713.531 9.91433 713.627 9.79299C713.722 9.663 713.77 9.481 713.77 9.247V8.12899H715.499V9.97499H716.851V11.47H715.499V15.305H716.747V16.8H715.603ZM718.187 16.8V9.97499H720.111V11.457H720.176C720.211 11.2663 720.272 11.0843 720.358 10.911C720.445 10.729 720.558 10.5687 720.696 10.43C720.844 10.2913 721.017 10.183 721.216 10.105C721.416 10.0183 721.65 9.97499 721.918 9.97499H722.256V11.769H721.775C721.212 11.769 720.792 11.8427 720.514 11.99C720.246 12.1373 720.111 12.4103 720.111 12.809V16.8H718.187ZM727.473 15.656H727.408C727.347 15.8293 727.265 15.994 727.161 16.15C727.066 16.306 726.94 16.4447 726.784 16.566C726.628 16.6873 726.442 16.7827 726.225 16.852C726.017 16.9213 725.774 16.956 725.497 16.956C724.795 16.956 724.262 16.7263 723.898 16.267C723.543 15.799 723.365 15.1317 723.365 14.265V9.97499H725.289V14.096C725.289 14.512 725.363 14.8327 725.51 15.058C725.657 15.2833 725.909 15.396 726.264 15.396C726.411 15.396 726.559 15.3743 726.706 15.331C726.853 15.2877 726.983 15.227 727.096 15.149C727.209 15.0623 727.3 14.9583 727.369 14.837C727.438 14.7157 727.473 14.5727 727.473 14.408V9.97499H729.397V16.8H727.473V15.656ZM731.187 16.8V9.97499H733.111V11.132H733.189C733.311 10.768 733.519 10.4603 733.813 10.209C734.108 9.949 734.511 9.819 735.022 9.819C735.49 9.819 735.889 9.936 736.218 10.17C736.548 10.404 736.786 10.7463 736.933 11.197H736.972C737.033 11.0063 737.124 10.8287 737.245 10.664C737.375 10.4907 737.531 10.3433 737.713 10.222C737.895 10.1007 738.099 10.0053 738.324 9.936C738.55 9.858 738.792 9.819 739.052 9.819C739.711 9.819 740.214 10.053 740.56 10.521C740.916 10.989 741.093 11.6563 741.093 12.523V16.8H739.169V12.679C739.169 11.8123 738.857 11.379 738.233 11.379C737.947 11.379 737.687 11.4613 737.453 11.626C737.219 11.7907 737.102 12.042 737.102 12.38V16.8H735.178V12.679C735.178 11.8123 734.866 11.379 734.242 11.379C734.104 11.379 733.965 11.4007 733.826 11.444C733.696 11.4787 733.575 11.5393 733.462 11.626C733.358 11.7127 733.272 11.821 733.202 11.951C733.142 12.0723 733.111 12.2153 733.111 12.38V16.8H731.187Z" fill="#404B51"/>
<g clip-path="url(#clip10_1_125)">
<path d="M762.09 9.6L768.09 15.6L774.09 9.6" stroke="#1B2022" stroke-width="2" stroke-linecap="round" stroke-linejoin="round"/>
</g>
<g clip-path="url(#clip11_1_125)">
<path d="M800.09 8.6V6.6C800.09 6.06957 799.879 5.56086 799.504 5.18579C799.129 4.81071 798.62 4.6 798.09 4.6H790.09C789.56 4.6 789.051 4.81071 788.676 5.18579C788.301 5.56086 788.09 6.06957 788.09 6.6V14.6C788.09 15.1304 788.301 15.6391 788.676 16.0142C789.051 16.3893 789.56 16.6 790.09 16.6H792.09M794.09 8.6H802.09C803.195 8.6 804.09 9.49543 804.09 10.6V18.6C804.09 19.7046 803.195 20.6 802.09 20.6H794.09C792.985 20.6 792.09 19.7046 792.09 18.6V10.6C792.09 9.49543 792.985 8.6 794.09 8.6Z" stroke="#707E85" stroke-width="2" stroke-linecap="round" stroke-linejoin="round"/>
</g>
<path d="M833.09 7.6H828.09C827.56 7.6 827.051 7.81071 826.676 8.18579C826.301 8.56086 826.09 9.06957 826.09 9.6V18.6C826.09 19.1304 826.301 19.6391 826.676 20.0142C827.051 20.3893 827.56 20.6 828.09 20.6H837.09C837.62 20.6 838.129 20.3893 838.504 20.0142C838.879 19.6391 839.09 19.1304 839.09 18.6V13.6M832.09 14.6L842.09 4.6M842.09 4.6H837.09M842.09 4.6V9.6" stroke="#707E85" stroke-width="2" stroke-linecap="round" stroke-linejoin="round"/>
<path d="M951.98 72.75V75.45C951.98 77.7 951.08 78.6 948.83 78.6H946.13C943.88 78.6 942.98 77.7 942.98 75.45V72.75C942.98 70.5 943.88 69.6 946.13 69.6H948.83C951.08 69.6 951.98 70.5 951.98 72.75Z" stroke="#707E85" stroke-width="1.5" stroke-linecap="round" stroke-linejoin="round"/>
<path d="M962.98 71.6C962.98 75.47 959.85 78.6 955.98 78.6L957.03 76.85" stroke="#707E85" stroke-width="1.5" stroke-linecap="round" stroke-linejoin="round"/>
<path d="M942.98 65.6C942.98 61.73 946.11 58.6 949.98 58.6L948.93 60.35" stroke="#707E85" stroke-width="1.5" stroke-linecap="round" stroke-linejoin="round"/>
<path d="M958.48 67.6C960.965 67.6 962.98 65.5853 962.98 63.1C962.98 60.6147 960.965 58.6 958.48 58.6C955.995 58.6 953.98 60.6147 953.98 63.1C953.98 65.5853 955.995 67.6 958.48 67.6Z" stroke="#707E85" stroke-width="1.5" stroke-linecap="round" stroke-linejoin="round"/>
<path d="M978.919 72.956C978.122 72.956 977.446 72.8217 976.891 72.553C976.336 72.2757 975.864 71.9203 975.474 71.487L976.774 70.174C977.389 70.8673 978.148 71.214 979.049 71.214C979.534 71.214 979.894 71.1143 980.128 70.915C980.362 70.7157 980.479 70.4513 980.479 70.122C980.479 69.8707 980.41 69.6627 980.271 69.498C980.132 69.3247 979.851 69.2077 979.426 69.147L978.529 69.03C977.567 68.9087 976.861 68.6183 976.41 68.159C975.968 67.6997 975.747 67.0887 975.747 66.326C975.747 65.9187 975.825 65.546 975.981 65.208C976.137 64.87 976.358 64.5797 976.644 64.337C976.939 64.0943 977.294 63.908 977.71 63.778C978.135 63.6393 978.616 63.57 979.153 63.57C979.838 63.57 980.44 63.6783 980.96 63.895C981.48 64.1117 981.926 64.428 982.299 64.844L980.986 66.17C980.769 65.9187 980.505 65.715 980.193 65.559C979.89 65.3943 979.504 65.312 979.036 65.312C978.594 65.312 978.265 65.39 978.048 65.546C977.831 65.702 977.723 65.9187 977.723 66.196C977.723 66.508 977.805 66.7333 977.97 66.872C978.143 67.0107 978.421 67.1103 978.802 67.171L979.699 67.314C980.635 67.4613 981.328 67.7517 981.779 68.185C982.23 68.6097 982.455 69.2163 982.455 70.005C982.455 70.4383 982.377 70.837 982.221 71.201C982.065 71.565 981.835 71.877 981.532 72.137C981.237 72.397 980.869 72.6007 980.427 72.748C979.985 72.8867 979.482 72.956 978.919 72.956ZM984.093 72.8V63.726H988.383C988.808 63.726 989.189 63.7997 989.527 63.947C989.865 64.0857 990.151 64.2807 990.385 64.532C990.628 64.7833 990.814 65.091 990.944 65.455C991.074 65.8103 991.139 66.2003 991.139 66.625C991.139 67.0583 991.074 67.4527 990.944 67.808C990.814 68.1633 990.628 68.4667 990.385 68.718C990.151 68.9693 989.865 69.1687 989.527 69.316C989.189 69.4547 988.808 69.524 988.383 69.524H986.069V72.8H984.093ZM986.069 67.808H988.149C988.444 67.808 988.674 67.7343 988.838 67.587C989.012 67.431 989.098 67.2057 989.098 66.911V66.339C989.098 66.0443 989.012 65.8233 988.838 65.676C988.674 65.52 988.444 65.442 988.149 65.442H986.069V67.808ZM997.262 72.8L996.612 70.642H993.583L992.933 72.8H990.931L993.921 63.726H996.365L999.316 72.8H997.262ZM995.117 65.52H995.052L994.051 68.965H996.131L995.117 65.52Z" fill="#404B51"/>
<g clip-path="url(#clip12_1_125)">
<path d="M1024.66 68.5999H1013M1024.66 68.5999L1021.33 65.2666M1024.66 68.5999L1021.33 71.9333" stroke="#707E85" stroke-width="1.66667" stroke-linecap="round" stroke-linejoin="round"/>
</g>
<path d="M1037.08 65.975H1038.94L1039.6 68.731L1040.07 70.811H1040.12L1040.66 68.731L1041.44 65.975H1043.2L1043.99 68.731L1044.55 70.811H1044.6L1045.07 68.731L1045.73 65.975H1047.52L1045.63 72.8H1043.62L1042.78 69.914L1042.3 68.146H1042.26L1041.8 69.914L1040.96 72.8H1038.99L1037.08 65.975ZM1051.7 72.956C1050.9 72.956 1050.23 72.8217 1049.67 72.553C1049.12 72.2757 1048.64 71.9203 1048.25 71.487L1049.55 70.174C1050.17 70.8673 1050.93 71.214 1051.83 71.214C1052.31 71.214 1052.67 71.1143 1052.91 70.915C1053.14 70.7157 1053.26 70.4513 1053.26 70.122C1053.26 69.8707 1053.19 69.6627 1053.05 69.498C1052.91 69.3247 1052.63 69.2077 1052.21 69.147L1051.31 69.03C1050.35 68.9087 1049.64 68.6183 1049.19 68.159C1048.75 67.6997 1048.53 67.0887 1048.53 66.326C1048.53 65.9187 1048.61 65.546 1048.76 65.208C1048.92 64.87 1049.14 64.5797 1049.42 64.337C1049.72 64.0943 1050.07 63.908 1050.49 63.778C1050.92 63.6393 1051.4 63.57 1051.93 63.57C1052.62 63.57 1053.22 63.6783 1053.74 63.895C1054.26 64.1117 1054.71 64.428 1055.08 64.844L1053.77 66.17C1053.55 65.9187 1053.29 65.715 1052.97 65.559C1052.67 65.3943 1052.28 65.312 1051.82 65.312C1051.37 65.312 1051.05 65.39 1050.83 65.546C1050.61 65.702 1050.5 65.9187 1050.5 66.196C1050.5 66.508 1050.59 66.7333 1050.75 66.872C1050.92 67.0107 1051.2 67.1103 1051.58 67.171L1052.48 67.314C1053.42 67.4613 1054.11 67.7517 1054.56 68.185C1055.01 68.6097 1055.24 69.2163 1055.24 70.005C1055.24 70.4383 1055.16 70.837 1055 71.201C1054.85 71.565 1054.62 71.877 1054.31 72.137C1054.02 72.397 1053.65 72.6007 1053.21 72.748C1052.77 72.8867 1052.26 72.956 1051.7 72.956ZM1056.87 72.8V63.726H1061.16C1061.59 63.726 1061.97 63.7997 1062.31 63.947C1062.65 64.0857 1062.93 64.2807 1063.17 64.532C1063.41 64.7833 1063.59 65.091 1063.72 65.455C1063.85 65.8103 1063.92 66.2003 1063.92 66.625C1063.92 67.0583 1063.85 67.4527 1063.72 67.808C1063.59 68.1633 1063.41 68.4667 1063.17 68.718C1062.93 68.9693 1062.65 69.1687 1062.31 69.316C1061.97 69.4547 1061.59 69.524 1061.16 69.524H1058.85V72.8H1056.87ZM1058.85 67.808H1060.93C1061.22 67.808 1061.45 67.7343 1061.62 67.587C1061.79 67.431 1061.88 67.2057 1061.88 66.911V66.339C1061.88 66.0443 1061.79 65.8233 1061.62 65.676C1061.45 65.52 1061.22 65.442 1060.93 65.442H1058.85V67.808ZM1070.04 72.8L1069.39 70.642H1066.36L1065.71 72.8H1063.71L1066.7 63.726H1069.15L1072.1 72.8H1070.04ZM1067.9 65.52H1067.83L1066.83 68.965H1068.91L1067.9 65.52Z" fill="#404B51"/>
<path d="M962.95 108.6C962.95 111.91 960.26 114.6 956.95 114.6C955.41 114.6 954.01 114.02 952.95 113.06C954.18 111.97 954.95 110.37 954.95 108.6C954.95 106.83 954.18 105.23 952.95 104.14C954.01 103.18 955.41 102.6 956.95 102.6C960.26 102.6 962.95 105.29 962.95 108.6Z" stroke="#707E85" stroke-width="1.5" stroke-linecap="round" stroke-linejoin="round"/>
<path d="M954.95 108.6C954.95 110.37 954.18 111.97 952.95 113.06C951.89 114.02 950.49 114.6 948.95 114.6C945.64 114.6 942.95 111.91 942.95 108.6C942.95 105.29 945.64 102.6 948.95 102.6C950.49 102.6 951.89 103.18 952.95 104.14C954.18 105.23 954.95 106.83 954.95 108.6Z" stroke="#707E85" stroke-width="1.5" stroke-linecap="round" stroke-linejoin="round"/>
<path d="M978.919 112.956C978.122 112.956 977.446 112.822 976.891 112.553C976.336 112.276 975.864 111.92 975.474 111.487L976.774 110.174C977.389 110.867 978.148 111.214 979.049 111.214C979.534 111.214 979.894 111.114 980.128 110.915C980.362 110.716 980.479 110.451 980.479 110.122C980.479 109.871 980.41 109.663 980.271 109.498C980.132 109.325 979.851 109.208 979.426 109.147L978.529 109.03C977.567 108.909 976.861 108.618 976.41 108.159C975.968 107.7 975.747 107.089 975.747 106.326C975.747 105.919 975.825 105.546 975.981 105.208C976.137 104.87 976.358 104.58 976.644 104.337C976.939 104.094 977.294 103.908 977.71 103.778C978.135 103.639 978.616 103.57 979.153 103.57C979.838 103.57 980.44 103.678 980.96 103.895C981.48 104.112 981.926 104.428 982.299 104.844L980.986 106.17C980.769 105.919 980.505 105.715 980.193 105.559C979.89 105.394 979.504 105.312 979.036 105.312C978.594 105.312 978.265 105.39 978.048 105.546C977.831 105.702 977.723 105.919 977.723 106.196C977.723 106.508 977.805 106.733 977.97 106.872C978.143 107.011 978.421 107.11 978.802 107.171L979.699 107.314C980.635 107.461 981.328 107.752 981.779 108.185C982.23 108.61 982.455 109.216 982.455 110.005C982.455 110.438 982.377 110.837 982.221 111.201C982.065 111.565 981.835 111.877 981.532 112.137C981.237 112.397 980.869 112.601 980.427 112.748C979.985 112.887 979.482 112.956 978.919 112.956ZM983.989 105.975H985.913V107.119H985.978C986.074 106.738 986.29 106.426 986.628 106.183C986.975 105.94 987.369 105.819 987.811 105.819C988.678 105.819 989.332 106.122 989.774 106.729C990.216 107.336 990.437 108.22 990.437 109.381C990.437 110.542 990.216 111.431 989.774 112.046C989.332 112.653 988.678 112.956 987.811 112.956C987.586 112.956 987.374 112.921 987.174 112.852C986.975 112.791 986.793 112.705 986.628 112.592C986.472 112.471 986.338 112.332 986.225 112.176C986.113 112.011 986.03 111.838 985.978 111.656H985.913V115.4H983.989V105.975ZM987.174 111.396C987.538 111.396 987.837 111.27 988.071 111.019C988.314 110.759 988.435 110.412 988.435 109.979V108.796C988.435 108.363 988.314 108.02 988.071 107.769C987.837 107.509 987.538 107.379 987.174 107.379C986.81 107.379 986.507 107.47 986.264 107.652C986.03 107.825 985.913 108.068 985.913 108.38V110.395C985.913 110.707 986.03 110.954 986.264 111.136C986.507 111.309 986.81 111.396 987.174 111.396ZM994.745 112.956C994.225 112.956 993.762 112.874 993.354 112.709C992.947 112.536 992.6 112.297 992.314 111.994C992.037 111.682 991.825 111.305 991.677 110.863C991.539 110.421 991.469 109.927 991.469 109.381C991.469 108.844 991.539 108.358 991.677 107.925C991.816 107.483 992.02 107.106 992.288 106.794C992.566 106.482 992.904 106.244 993.302 106.079C993.701 105.906 994.156 105.819 994.667 105.819C995.231 105.819 995.712 105.914 996.11 106.105C996.518 106.296 996.847 106.551 997.098 106.872C997.358 107.193 997.545 107.565 997.657 107.99C997.779 108.406 997.839 108.844 997.839 109.303V109.875H993.458V109.979C993.458 110.43 993.58 110.789 993.822 111.058C994.065 111.318 994.446 111.448 994.966 111.448C995.365 111.448 995.69 111.37 995.941 111.214C996.193 111.049 996.427 110.854 996.643 110.629L997.605 111.825C997.302 112.18 996.903 112.458 996.409 112.657C995.924 112.856 995.369 112.956 994.745 112.956ZM994.706 107.236C994.316 107.236 994.009 107.366 993.783 107.626C993.567 107.877 993.458 108.215 993.458 108.64V108.744H995.85V108.627C995.85 108.211 995.755 107.877 995.564 107.626C995.382 107.366 995.096 107.236 994.706 107.236ZM999.198 112.8V105.975H1001.12V107.457H1001.19C1001.22 107.266 1001.28 107.084 1001.37 106.911C1001.46 106.729 1001.57 106.569 1001.71 106.43C1001.85 106.291 1002.03 106.183 1002.23 106.105C1002.43 106.018 1002.66 105.975 1002.93 105.975H1003.27V107.769H1002.79C1002.22 107.769 1001.8 107.843 1001.53 107.99C1001.26 108.137 1001.12 108.41 1001.12 108.809V112.8H999.198ZM1009.32 112.8C1008.97 112.8 1008.68 112.692 1008.45 112.475C1008.22 112.258 1008.08 111.968 1008.02 111.604H1007.94C1007.84 112.046 1007.61 112.384 1007.25 112.618C1006.9 112.843 1006.46 112.956 1005.94 112.956C1005.26 112.956 1004.73 112.774 1004.37 112.41C1004 112.046 1003.82 111.565 1003.82 110.967C1003.82 110.248 1004.08 109.715 1004.6 109.368C1005.13 109.013 1005.85 108.835 1006.75 108.835H1007.83V108.406C1007.83 108.077 1007.74 107.817 1007.57 107.626C1007.39 107.427 1007.1 107.327 1006.69 107.327C1006.31 107.327 1006.01 107.409 1005.78 107.574C1005.56 107.739 1005.37 107.925 1005.23 108.133L1004.08 107.119C1004.36 106.712 1004.71 106.395 1005.12 106.17C1005.55 105.936 1006.12 105.819 1006.84 105.819C1007.81 105.819 1008.54 106.031 1009.02 106.456C1009.51 106.881 1009.75 107.5 1009.75 108.315V111.305H1010.39V112.8H1009.32ZM1006.66 111.617C1006.98 111.617 1007.25 111.548 1007.47 111.409C1007.71 111.27 1007.83 111.045 1007.83 110.733V109.927H1006.89C1006.14 109.927 1005.76 110.183 1005.76 110.694V110.889C1005.76 111.14 1005.84 111.327 1005.99 111.448C1006.15 111.561 1006.37 111.617 1006.66 111.617ZM1011.01 112.8L1013.26 109.329L1011.04 105.975H1013.22L1014.5 108.12H1014.55L1015.79 105.975H1017.81L1015.55 109.394L1017.83 112.8H1015.64L1014.33 110.577H1014.28L1013.02 112.8H1011.01ZM1018.29 109.771V107.899H1022.15V109.771H1018.29ZM1032.5 112.8L1031.85 110.642H1028.83L1028.18 112.8H1026.17L1029.16 103.726H1031.61L1034.56 112.8H1032.5ZM1030.36 105.52H1030.29L1029.29 108.965H1031.37L1030.36 105.52ZM1035.71 112.8V105.975H1037.63V107.457H1037.7C1037.73 107.266 1037.79 107.084 1037.88 106.911C1037.97 106.729 1038.08 106.569 1038.22 106.43C1038.37 106.291 1038.54 106.183 1038.74 106.105C1038.94 106.018 1039.17 105.975 1039.44 105.975H1039.78V107.769H1039.3C1038.73 107.769 1038.31 107.843 1038.04 107.99C1037.77 108.137 1037.63 108.41 1037.63 108.809V112.8H1035.71ZM1040.97 103.18H1042.89V107.119H1042.95C1043.05 106.738 1043.27 106.426 1043.6 106.183C1043.95 105.94 1044.35 105.819 1044.79 105.819C1045.65 105.819 1046.31 106.122 1046.75 106.729C1047.19 107.336 1047.41 108.22 1047.41 109.381C1047.41 110.542 1047.19 111.431 1046.75 112.046C1046.31 112.653 1045.65 112.956 1044.79 112.956C1044.56 112.956 1044.35 112.921 1044.15 112.852C1043.95 112.791 1043.77 112.705 1043.6 112.592C1043.45 112.471 1043.31 112.332 1043.2 112.176C1043.09 112.011 1043.01 111.838 1042.95 111.656H1042.89V112.8H1040.97V103.18ZM1044.15 111.396C1044.51 111.396 1044.81 111.27 1045.05 111.019C1045.29 110.759 1045.41 110.412 1045.41 109.979V108.796C1045.41 108.363 1045.29 108.02 1045.05 107.769C1044.81 107.509 1044.51 107.379 1044.15 107.379C1043.79 107.379 1043.48 107.47 1043.24 107.652C1043.01 107.825 1042.89 108.068 1042.89 108.38V110.395C1042.89 110.707 1043.01 110.954 1043.24 111.136C1043.48 111.309 1043.79 111.396 1044.15 111.396ZM1049.84 105.247C1049.45 105.247 1049.16 105.16 1048.98 104.987C1048.81 104.805 1048.72 104.575 1048.72 104.298V104.012C1048.72 103.735 1048.81 103.509 1048.98 103.336C1049.16 103.154 1049.45 103.063 1049.84 103.063C1050.23 103.063 1050.51 103.154 1050.68 103.336C1050.86 103.509 1050.96 103.735 1050.96 104.012V104.298C1050.96 104.575 1050.86 104.805 1050.68 104.987C1050.51 105.16 1050.23 105.247 1049.84 105.247ZM1048.88 105.975H1050.8V112.8H1048.88V105.975ZM1054.99 112.8C1054.32 112.8 1053.81 112.631 1053.47 112.293C1053.13 111.955 1052.96 111.461 1052.96 110.811V107.47H1052V105.975H1052.48C1052.74 105.975 1052.92 105.914 1053.01 105.793C1053.11 105.663 1053.15 105.481 1053.15 105.247V104.129H1054.88V105.975H1056.23V107.47H1054.88V111.305H1056.13V112.8H1054.99ZM1057.57 112.8V105.975H1059.5V107.457H1059.56C1059.59 107.266 1059.66 107.084 1059.74 106.911C1059.83 106.729 1059.94 106.569 1060.08 106.43C1060.23 106.291 1060.4 106.183 1060.6 106.105C1060.8 106.018 1061.03 105.975 1061.3 105.975H1061.64V107.769H1061.16C1060.6 107.769 1060.18 107.843 1059.9 107.99C1059.63 108.137 1059.5 108.41 1059.5 108.809V112.8H1057.57ZM1066.86 111.656H1066.79C1066.73 111.829 1066.65 111.994 1066.55 112.15C1066.45 112.306 1066.32 112.445 1066.17 112.566C1066.01 112.687 1065.83 112.783 1065.61 112.852C1065.4 112.921 1065.16 112.956 1064.88 112.956C1064.18 112.956 1063.65 112.726 1063.28 112.267C1062.93 111.799 1062.75 111.132 1062.75 110.265V105.975H1064.67V110.096C1064.67 110.512 1064.75 110.833 1064.89 111.058C1065.04 111.283 1065.29 111.396 1065.65 111.396C1065.8 111.396 1065.94 111.374 1066.09 111.331C1066.24 111.288 1066.37 111.227 1066.48 111.149C1066.59 111.062 1066.68 110.958 1066.75 110.837C1066.82 110.716 1066.86 110.573 1066.86 110.408V105.975H1068.78V112.8H1066.86V111.656ZM1070.57 112.8V105.975H1072.5V107.132H1072.57C1072.69 106.768 1072.9 106.46 1073.2 106.209C1073.49 105.949 1073.89 105.819 1074.41 105.819C1074.87 105.819 1075.27 105.936 1075.6 106.17C1075.93 106.404 1076.17 106.746 1076.32 107.197H1076.36C1076.42 107.006 1076.51 106.829 1076.63 106.664C1076.76 106.491 1076.92 106.343 1077.1 106.222C1077.28 106.101 1077.48 106.005 1077.71 105.936C1077.93 105.858 1078.18 105.819 1078.44 105.819C1079.09 105.819 1079.6 106.053 1079.94 106.521C1080.3 106.989 1080.48 107.656 1080.48 108.523V112.8H1078.55V108.679C1078.55 107.812 1078.24 107.379 1077.62 107.379C1077.33 107.379 1077.07 107.461 1076.84 107.626C1076.6 107.791 1076.49 108.042 1076.49 108.38V112.8H1074.56V108.679C1074.56 107.812 1074.25 107.379 1073.63 107.379C1073.49 107.379 1073.35 107.401 1073.21 107.444C1073.08 107.479 1072.96 107.539 1072.85 107.626C1072.74 107.713 1072.66 107.821 1072.59 107.951C1072.53 108.072 1072.5 108.215 1072.5 108.38V112.8H1070.57ZM1085.36 103.726H1089.77C1090.52 103.726 1091.11 103.938 1091.53 104.363C1091.95 104.788 1092.16 105.351 1092.16 106.053C1092.16 106.4 1092.12 106.694 1092.02 106.937C1091.93 107.18 1091.81 107.379 1091.66 107.535C1091.51 107.691 1091.33 107.808 1091.12 107.886C1090.92 107.955 1090.71 107.994 1090.47 108.003V108.081C1090.69 108.081 1090.91 108.12 1091.15 108.198C1091.39 108.276 1091.61 108.402 1091.81 108.575C1092.01 108.74 1092.18 108.956 1092.31 109.225C1092.44 109.494 1092.51 109.823 1092.51 110.213C1092.51 110.568 1092.45 110.906 1092.33 111.227C1092.22 111.539 1092.06 111.812 1091.85 112.046C1091.64 112.28 1091.4 112.466 1091.11 112.605C1090.82 112.735 1090.51 112.8 1090.17 112.8H1085.36V103.726ZM1087.34 111.136H1089.61C1089.87 111.136 1090.08 111.067 1090.23 110.928C1090.38 110.781 1090.46 110.577 1090.46 110.317V109.875C1090.46 109.615 1090.38 109.416 1090.23 109.277C1090.08 109.13 1089.87 109.056 1089.61 109.056H1087.34V111.136ZM1087.34 107.444H1089.3C1089.56 107.444 1089.77 107.37 1089.91 107.223C1090.06 107.076 1090.13 106.872 1090.13 106.612V106.222C1090.13 105.962 1090.06 105.758 1089.91 105.611C1089.77 105.464 1089.56 105.39 1089.3 105.39H1087.34V107.444ZM1093.93 112.8V105.975H1095.85V107.457H1095.92C1095.95 107.266 1096.02 107.084 1096.1 106.911C1096.19 106.729 1096.3 106.569 1096.44 106.43C1096.59 106.291 1096.76 106.183 1096.96 106.105C1097.16 106.018 1097.39 105.975 1097.66 105.975H1098V107.769H1097.52C1096.96 107.769 1096.54 107.843 1096.26 107.99C1095.99 108.137 1095.85 108.41 1095.85 108.809V112.8H1093.93ZM1100.15 105.247C1099.76 105.247 1099.47 105.16 1099.29 104.987C1099.12 104.805 1099.03 104.575 1099.03 104.298V104.012C1099.03 103.735 1099.12 103.509 1099.29 103.336C1099.47 103.154 1099.76 103.063 1100.15 103.063C1100.54 103.063 1100.82 103.154 1100.99 103.336C1101.18 103.509 1101.27 103.735 1101.27 104.012V104.298C1101.27 104.575 1101.18 104.805 1100.99 104.987C1100.82 105.16 1100.54 105.247 1100.15 105.247ZM1099.19 105.975H1101.11V112.8H1099.19V105.975ZM1107.09 111.656H1107.03C1106.98 111.838 1106.89 112.011 1106.78 112.176C1106.67 112.332 1106.53 112.471 1106.36 112.592C1106.21 112.705 1106.03 112.791 1105.82 112.852C1105.62 112.921 1105.41 112.956 1105.19 112.956C1104.33 112.956 1103.67 112.653 1103.23 112.046C1102.79 111.431 1102.57 110.542 1102.57 109.381C1102.57 108.22 1102.79 107.336 1103.23 106.729C1103.67 106.122 1104.33 105.819 1105.19 105.819C1105.64 105.819 1106.03 105.94 1106.36 106.183C1106.71 106.426 1106.93 106.738 1107.03 107.119H1107.09V103.18H1109.02V112.8H1107.09V111.656ZM1105.83 111.396C1106.2 111.396 1106.49 111.309 1106.73 111.136C1106.97 110.954 1107.09 110.707 1107.09 110.395V108.38C1107.09 108.068 1106.97 107.825 1106.73 107.652C1106.49 107.47 1106.2 107.379 1105.83 107.379C1105.47 107.379 1105.16 107.509 1104.92 107.769C1104.69 108.02 1104.57 108.363 1104.57 108.796V109.979C1104.57 110.412 1104.69 110.759 1104.92 111.019C1105.16 111.27 1105.47 111.396 1105.83 111.396ZM1117.13 113.294C1117.13 113.658 1117.07 113.979 1116.94 114.256C1116.82 114.533 1116.61 114.767 1116.33 114.958C1116.04 115.157 1115.66 115.305 1115.18 115.4C1114.72 115.504 1114.13 115.556 1113.44 115.556C1112.85 115.556 1112.35 115.517 1111.93 115.439C1111.53 115.37 1111.19 115.266 1110.93 115.127C1110.68 114.997 1110.49 114.832 1110.37 114.633C1110.26 114.442 1110.2 114.221 1110.2 113.97C1110.2 113.589 1110.32 113.29 1110.54 113.073C1110.77 112.856 1111.08 112.722 1111.48 112.67V112.527C1111.15 112.466 1110.9 112.328 1110.74 112.111C1110.57 111.886 1110.49 111.626 1110.49 111.331C1110.49 111.149 1110.53 110.993 1110.59 110.863C1110.67 110.724 1110.77 110.607 1110.88 110.512C1111 110.408 1111.14 110.326 1111.3 110.265C1111.45 110.204 1111.61 110.157 1111.76 110.122V110.07C1111.35 109.879 1111.04 109.619 1110.84 109.29C1110.64 108.952 1110.54 108.562 1110.54 108.12C1110.54 107.427 1110.78 106.872 1111.26 106.456C1111.74 106.031 1112.48 105.819 1113.47 105.819C1113.92 105.819 1114.3 105.862 1114.62 105.949V105.689C1114.62 105.325 1114.71 105.065 1114.88 104.909C1115.07 104.744 1115.32 104.662 1115.65 104.662H1116.73V106.092H1115.22V106.17C1115.62 106.361 1115.92 106.625 1116.11 106.963C1116.3 107.292 1116.39 107.678 1116.39 108.12C1116.39 108.805 1116.15 109.355 1115.66 109.771C1115.19 110.178 1114.46 110.382 1113.47 110.382C1113.03 110.382 1112.62 110.334 1112.26 110.239C1112.06 110.369 1111.96 110.551 1111.96 110.785C1111.96 110.95 1112.02 111.08 1112.14 111.175C1112.27 111.262 1112.48 111.305 1112.78 111.305H1114.75C1115.59 111.305 1116.19 111.478 1116.56 111.825C1116.94 112.172 1117.13 112.661 1117.13 113.294ZM1115.33 113.554C1115.33 113.355 1115.25 113.203 1115.09 113.099C1114.94 112.995 1114.66 112.943 1114.27 112.943H1111.93C1111.85 113.03 1111.78 113.125 1111.74 113.229C1111.7 113.342 1111.69 113.45 1111.69 113.554C1111.69 113.805 1111.79 113.987 1112.01 114.1C1112.23 114.221 1112.6 114.282 1113.12 114.282H1113.9C1114.42 114.282 1114.78 114.221 1115 114.1C1115.22 113.987 1115.33 113.805 1115.33 113.554ZM1113.47 109.121C1113.85 109.121 1114.13 109.043 1114.31 108.887C1114.5 108.722 1114.6 108.488 1114.6 108.185V108.029C1114.6 107.726 1114.5 107.496 1114.31 107.34C1114.13 107.175 1113.85 107.093 1113.47 107.093C1113.09 107.093 1112.8 107.175 1112.61 107.34C1112.43 107.496 1112.34 107.726 1112.34 108.029V108.185C1112.34 108.488 1112.43 108.722 1112.61 108.887C1112.8 109.043 1113.09 109.121 1113.47 109.121ZM1120.76 112.956C1120.24 112.956 1119.78 112.874 1119.37 112.709C1118.96 112.536 1118.61 112.297 1118.33 111.994C1118.05 111.682 1117.84 111.305 1117.69 110.863C1117.55 110.421 1117.48 109.927 1117.48 109.381C1117.48 108.844 1117.55 108.358 1117.69 107.925C1117.83 107.483 1118.03 107.106 1118.3 106.794C1118.58 106.482 1118.92 106.244 1119.32 106.079C1119.71 105.906 1120.17 105.819 1120.68 105.819C1121.24 105.819 1121.73 105.914 1122.12 106.105C1122.53 106.296 1122.86 106.551 1123.11 106.872C1123.37 107.193 1123.56 107.565 1123.67 107.99C1123.79 108.406 1123.85 108.844 1123.85 109.303V109.875H1119.47V109.979C1119.47 110.43 1119.59 110.789 1119.84 111.058C1120.08 111.318 1120.46 111.448 1120.98 111.448C1121.38 111.448 1121.7 111.37 1121.96 111.214C1122.21 111.049 1122.44 110.854 1122.66 110.629L1123.62 111.825C1123.32 112.18 1122.92 112.458 1122.42 112.657C1121.94 112.856 1121.38 112.956 1120.76 112.956ZM1120.72 107.236C1120.33 107.236 1120.02 107.366 1119.8 107.626C1119.58 107.877 1119.47 108.215 1119.47 108.64V108.744H1121.86V108.627C1121.86 108.211 1121.77 107.877 1121.58 107.626C1121.4 107.366 1121.11 107.236 1120.72 107.236Z" fill="#404B51"/>
<g clip-path="url(#clip13_1_125)">
<path d="M964.98 12.6C964.98 5.97258 959.607 0.599998 952.98 0.599998C946.353 0.599998 940.98 5.97258 940.98 12.6C940.98 19.2274 946.353 24.6 952.98 24.6C959.607 24.6 964.98 19.2274 964.98 12.6Z" fill="#1B2022"/>
<path fill-rule="evenodd" clip-rule="evenodd" d="M956.536 13.7053C953.958 13.7053 951.868 11.6162 951.868 9.04131C951.868 7.69315 950.78 6.60004 949.424 6.60004C948.08 6.60004 946.98 7.69315 946.98 9.04131C946.98 10.3895 948.068 11.4826 949.424 11.4826H949.436C952.002 11.4826 954.08 13.5717 954.092 16.1466V16.1587C954.092 17.5069 955.179 18.6 956.536 18.6C957.892 18.6 958.98 17.5069 958.98 16.1587C958.968 14.7984 957.88 13.7053 956.536 13.7053Z" fill="white"/>
<path fill-rule="evenodd" clip-rule="evenodd" d="M949.436 13.7053C948.092 13.7053 946.992 14.7984 946.992 16.1466C946.992 17.4948 948.08 18.5879 949.436 18.5879C950.793 18.5879 951.88 17.4948 951.88 16.1466C951.868 14.7984 950.78 13.7053 949.436 13.7053Z" fill="white"/>
<path fill-rule="evenodd" clip-rule="evenodd" d="M956.536 6.6C957.886 6.6 958.98 7.69298 958.98 9.04127C958.98 10.3896 957.886 11.4826 956.536 11.4826C955.186 11.4826 954.092 10.3896 954.092 9.04127C954.092 7.69298 955.186 6.6 956.536 6.6Z" fill="white"/>
<path d="M958.98 24.6C962.294 24.6 964.98 21.9137 964.98 18.6C964.98 15.2863 962.294 12.6 958.98 12.6C955.666 12.6 952.98 15.2863 952.98 18.6C952.98 21.9137 955.666 24.6 958.98 24.6Z" fill="#2783B8"/>
<path d="M957.773 21.2667C957.616 21.2667 957.479 21.1924 957.363 21.0437C957.252 20.8951 957.153 20.7029 957.067 20.4672C956.986 20.2314 956.885 19.8932 956.763 19.4524C956.627 18.9809 956.503 18.5786 956.391 18.2454C956.285 17.9123 956.156 17.5843 956.004 17.2614C956.323 17.1538 956.67 17.1 957.044 17.1C957.069 17.3409 957.125 17.6663 957.211 18.0763C957.302 18.4812 957.396 18.8553 957.492 19.1987C957.664 19.7625 957.806 20.1673 957.917 20.4133C958.317 19.2192 958.578 18.3531 958.699 17.8149L958.464 17.2614C958.778 17.1538 959.122 17.1 959.496 17.1C959.532 17.3409 959.593 17.6638 959.679 18.0686C959.765 18.4735 959.853 18.8502 959.944 19.1987C960.106 19.7266 960.251 20.1315 960.377 20.4133C960.681 19.4755 960.898 18.7682 961.03 18.2916C961.167 17.8149 961.235 17.4869 961.235 17.3076C961.235 17.2666 961.23 17.2256 961.22 17.1846C961.438 17.1282 961.683 17.1 961.956 17.1C961.784 17.5459 961.572 18.1558 961.319 18.9296C961.066 19.6984 960.848 20.3852 960.666 20.9899L960.233 21.2667C960.076 21.2667 959.939 21.1924 959.823 21.0437C959.712 20.8951 959.613 20.7029 959.527 20.4672C959.446 20.2314 959.345 19.8957 959.223 19.4601C959.122 19.1116 959.038 18.8271 958.973 18.6068C958.623 19.6625 958.37 20.4569 958.213 20.9899L957.773 21.2667Z" fill="white"/>
</g>
<path d="M975.227 9.97499H977.086L977.749 12.731L978.217 14.811H978.269L978.815 12.731L979.595 9.97499H981.35L982.143 12.731L982.702 14.811H982.754L983.222 12.731L983.885 9.97499H985.666L983.781 16.8H981.766L980.934 13.914L980.453 12.146H980.414L979.946 13.914L979.114 16.8H977.138L975.227 9.97499ZM989.85 16.956C989.052 16.956 988.376 16.8217 987.822 16.553C987.267 16.2757 986.795 15.9203 986.405 15.487L987.705 14.174C988.32 14.8673 989.078 15.214 989.98 15.214C990.465 15.214 990.825 15.1143 991.059 14.915C991.293 14.7157 991.41 14.4513 991.41 14.122C991.41 13.8707 991.34 13.6627 991.202 13.498C991.063 13.3247 990.781 13.2077 990.357 13.147L989.46 13.03C988.498 12.9087 987.791 12.6183 987.341 12.159C986.899 11.6997 986.678 11.0887 986.678 10.326C986.678 9.91866 986.756 9.546 986.912 9.20799C987.068 8.86999 987.289 8.57966 987.575 8.337C987.869 8.09433 988.225 7.908 988.641 7.778C989.065 7.63933 989.546 7.56999 990.084 7.56999C990.768 7.56999 991.371 7.67833 991.891 7.89499C992.411 8.11166 992.857 8.42799 993.23 8.84399L991.917 10.17C991.7 9.91866 991.436 9.71499 991.124 9.55899C990.82 9.39433 990.435 9.31199 989.967 9.31199C989.525 9.31199 989.195 9.38999 988.979 9.546C988.762 9.702 988.654 9.91866 988.654 10.196C988.654 10.508 988.736 10.7333 988.901 10.872C989.074 11.0107 989.351 11.1103 989.733 11.171L990.63 11.314C991.566 11.4613 992.259 11.7517 992.71 12.185C993.16 12.6097 993.386 13.2163 993.386 14.005C993.386 14.4383 993.308 14.837 993.152 15.201C992.996 15.565 992.766 15.877 992.463 16.137C992.168 16.397 991.8 16.6007 991.358 16.748C990.916 16.8867 990.413 16.956 989.85 16.956ZM995.024 16.8V7.726H999.314C999.739 7.726 1000.12 7.79966 1000.46 7.94699C1000.8 8.08566 1001.08 8.28066 1001.32 8.53199C1001.56 8.78333 1001.74 9.09099 1001.87 9.455C1002 9.81033 1002.07 10.2003 1002.07 10.625C1002.07 11.0583 1002 11.4527 1001.87 11.808C1001.74 12.1633 1001.56 12.4667 1001.32 12.718C1001.08 12.9693 1000.8 13.1687 1000.46 13.316C1000.12 13.4547 999.739 13.524 999.314 13.524H997V16.8H995.024ZM997 11.808H999.08C999.375 11.808 999.604 11.7343 999.769 11.587C999.942 11.431 1000.03 11.2057 1000.03 10.911V10.339C1000.03 10.0443 999.942 9.82333 999.769 9.67599C999.604 9.51999 999.375 9.44199 999.08 9.44199H997V11.808ZM1008.19 16.8L1007.54 14.642H1004.51L1003.86 16.8H1001.86L1004.85 7.726H1007.3L1010.25 16.8H1008.19ZM1006.05 9.52H1005.98L1004.98 12.965H1007.06L1006.05 9.52ZM1014.57 16.8V7.726H1020.75V9.481H1016.55V11.34H1020.15V13.082H1016.55V15.045H1020.75V16.8H1014.57ZM1024.76 16.8C1024.09 16.8 1023.58 16.631 1023.24 16.293C1022.9 15.955 1022.73 15.461 1022.73 14.811V11.47H1021.77V9.97499H1022.25C1022.51 9.97499 1022.69 9.91433 1022.78 9.79299C1022.88 9.663 1022.93 9.481 1022.93 9.247V8.12899H1024.66V9.97499H1026.01V11.47H1024.66V15.305H1025.9V16.8H1024.76ZM1027.34 7.18H1029.27V11.132H1029.35C1029.47 10.7767 1029.68 10.469 1029.98 10.209C1030.29 9.949 1030.71 9.819 1031.24 9.819C1031.95 9.819 1032.47 10.053 1032.83 10.521C1033.19 10.989 1033.38 11.6563 1033.38 12.523V16.8H1031.45V12.679C1031.45 12.237 1031.38 11.912 1031.24 11.704C1031.11 11.4873 1030.86 11.379 1030.5 11.379C1030.35 11.379 1030.2 11.4007 1030.05 11.444C1029.9 11.4787 1029.77 11.5393 1029.64 11.626C1029.53 11.7127 1029.44 11.821 1029.37 11.951C1029.3 12.0723 1029.27 12.2153 1029.27 12.38V16.8H1027.34V7.18ZM1037.93 16.956C1037.41 16.956 1036.95 16.8737 1036.54 16.709C1036.14 16.5357 1035.79 16.2973 1035.5 15.994C1035.23 15.682 1035.01 15.305 1034.87 14.863C1034.73 14.421 1034.66 13.927 1034.66 13.381C1034.66 12.8437 1034.73 12.3583 1034.87 11.925C1035.01 11.483 1035.21 11.106 1035.48 10.794C1035.76 10.482 1036.09 10.2437 1036.49 10.079C1036.89 9.90566 1037.35 9.819 1037.86 9.819C1038.42 9.819 1038.9 9.91433 1039.3 10.105C1039.71 10.2957 1040.04 10.5513 1040.29 10.872C1040.55 11.1927 1040.73 11.5653 1040.85 11.99C1040.97 12.406 1041.03 12.8437 1041.03 13.303V13.875H1036.65V13.979C1036.65 14.4297 1036.77 14.7893 1037.01 15.058C1037.25 15.318 1037.64 15.448 1038.16 15.448C1038.55 15.448 1038.88 15.37 1039.13 15.214C1039.38 15.0493 1039.62 14.8543 1039.83 14.629L1040.79 15.825C1040.49 16.1803 1040.09 16.4577 1039.6 16.657C1039.11 16.8563 1038.56 16.956 1037.93 16.956ZM1037.9 11.236C1037.51 11.236 1037.2 11.366 1036.97 11.626C1036.76 11.8773 1036.65 12.2153 1036.65 12.64V12.744H1039.04V12.627C1039.04 12.211 1038.94 11.8773 1038.75 11.626C1038.57 11.366 1038.29 11.236 1037.9 11.236ZM1042.39 16.8V9.97499H1044.31V11.457H1044.38C1044.41 11.2663 1044.47 11.0843 1044.56 10.911C1044.65 10.729 1044.76 10.5687 1044.9 10.43C1045.04 10.2913 1045.22 10.183 1045.42 10.105C1045.62 10.0183 1045.85 9.97499 1046.12 9.97499H1046.46V11.769H1045.98C1045.41 11.769 1044.99 11.8427 1044.71 11.99C1044.45 12.1373 1044.31 12.4103 1044.31 12.809V16.8H1042.39ZM1050.43 16.956C1049.91 16.956 1049.44 16.8737 1049.04 16.709C1048.63 16.5357 1048.28 16.2973 1048 15.994C1047.72 15.682 1047.51 15.305 1047.36 14.863C1047.22 14.421 1047.15 13.927 1047.15 13.381C1047.15 12.8437 1047.22 12.3583 1047.36 11.925C1047.5 11.483 1047.7 11.106 1047.97 10.794C1048.25 10.482 1048.59 10.2437 1048.98 10.079C1049.38 9.90566 1049.84 9.819 1050.35 9.819C1050.91 9.819 1051.39 9.91433 1051.79 10.105C1052.2 10.2957 1052.53 10.5513 1052.78 10.872C1053.04 11.1927 1053.23 11.5653 1053.34 11.99C1053.46 12.406 1053.52 12.8437 1053.52 13.303V13.875H1049.14V13.979C1049.14 14.4297 1049.26 14.7893 1049.5 15.058C1049.75 15.318 1050.13 15.448 1050.65 15.448C1051.05 15.448 1051.37 15.37 1051.62 15.214C1051.87 15.0493 1052.11 14.8543 1052.33 14.629L1053.29 15.825C1052.98 16.1803 1052.59 16.4577 1052.09 16.657C1051.61 16.8563 1051.05 16.956 1050.43 16.956ZM1050.39 11.236C1050 11.236 1049.69 11.366 1049.47 11.626C1049.25 11.8773 1049.14 12.2153 1049.14 12.64V12.744H1051.53V12.627C1051.53 12.211 1051.44 11.8773 1051.25 11.626C1051.06 11.366 1050.78 11.236 1050.39 11.236ZM1058.91 15.656H1058.84C1058.78 15.8293 1058.7 15.994 1058.6 16.15C1058.5 16.306 1058.38 16.4447 1058.22 16.566C1058.06 16.6873 1057.88 16.7827 1057.66 16.852C1057.45 16.9213 1057.21 16.956 1056.93 16.956C1056.23 16.956 1055.7 16.7263 1055.33 16.267C1054.98 15.799 1054.8 15.1317 1054.8 14.265V9.97499H1056.73V14.096C1056.73 14.512 1056.8 14.8327 1056.95 15.058C1057.09 15.2833 1057.35 15.396 1057.7 15.396C1057.85 15.396 1058 15.3743 1058.14 15.331C1058.29 15.2877 1058.42 15.227 1058.53 15.149C1058.65 15.0623 1058.74 14.9583 1058.81 14.837C1058.88 14.7157 1058.91 14.5727 1058.91 14.408V9.97499H1060.83V16.8H1058.91V15.656ZM1062.62 16.8V9.97499H1064.55V11.132H1064.63C1064.75 10.768 1064.96 10.4603 1065.25 10.209C1065.54 9.949 1065.95 9.819 1066.46 9.819C1066.93 9.819 1067.33 9.936 1067.66 10.17C1067.98 10.404 1068.22 10.7463 1068.37 11.197H1068.41C1068.47 11.0063 1068.56 10.8287 1068.68 10.664C1068.81 10.4907 1068.97 10.3433 1069.15 10.222C1069.33 10.1007 1069.54 10.0053 1069.76 9.936C1069.99 9.858 1070.23 9.819 1070.49 9.819C1071.15 9.819 1071.65 10.053 1072 10.521C1072.35 10.989 1072.53 11.6563 1072.53 12.523V16.8H1070.61V12.679C1070.61 11.8123 1070.29 11.379 1069.67 11.379C1069.38 11.379 1069.12 11.4613 1068.89 11.626C1068.66 11.7907 1068.54 12.042 1068.54 12.38V16.8H1066.62V12.679C1066.62 11.8123 1066.3 11.379 1065.68 11.379C1065.54 11.379 1065.4 11.4007 1065.26 11.444C1065.13 11.4787 1065.01 11.5393 1064.9 11.626C1064.8 11.7127 1064.71 11.821 1064.64 11.951C1064.58 12.0723 1064.55 12.2153 1064.55 12.38V16.8H1062.62Z" fill="#404B51"/>
<g clip-path="url(#clip14_1_125)">
<path d="M1102 8.6V6.6C1102 6.06957 1101.79 5.56086 1101.41 5.18579C1101.04 4.81071 1100.53 4.6 1100 4.6H1092C1091.47 4.6 1090.96 4.81071 1090.59 5.18579C1090.21 5.56086 1090 6.06957 1090 6.6V14.6C1090 15.1304 1090.21 15.6391 1090.59 16.0142C1090.96 16.3893 1091.47 16.6 1092 16.6H1094M1096 8.6H1104C1105.1 8.6 1106 9.49543 1106 10.6V18.6C1106 19.7046 1105.1 20.6 1104 20.6H1096C1094.9 20.6 1094 19.7046 1094 18.6V10.6C1094 9.49543 1094.9 8.6 1096 8.6Z" stroke="#707E85" stroke-width="2" stroke-linecap="round" stroke-linejoin="round"/>
</g>
<path d="M1131 7.6H1126C1125.47 7.6 1124.96 7.81071 1124.59 8.18579C1124.21 8.56086 1124 9.06957 1124 9.6V18.6C1124 19.1304 1124.21 19.6391 1124.59 20.0142C1124.96 20.3893 1125.47 20.6 1126 20.6H1135C1135.53 20.6 1136.04 20.3893 1136.41 20.0142C1136.79 19.6391 1137 19.1304 1137 18.6V13.6M1130 14.6L1140 4.6M1140 4.6H1135M1140 4.6V9.6" stroke="#707E85" stroke-width="2" stroke-linecap="round" stroke-linejoin="round"/>
<defs>
<linearGradient id="paint0_linear_1_125" x1="307.13" y1="0.599998" x2="307.13" y2="24.6" gradientUnits="userSpaceOnUse">
<stop stop-color="#2E2E2E"/>
<stop offset="1" stop-color="#020303"/>
</linearGradient>
<linearGradient id="paint1_linear_1_125" x1="307.13" y1="7.26669" x2="307.13" y2="17.9333" gradientUnits="userSpaceOnUse">
<stop stop-color="#46D5CF"/>
<stop offset="1" stop-color="#45D6D0"/>
</linearGradient>
<linearGradient id="paint2_linear_1_125" x1="303.98" y1="13.5826" x2="303.98" y2="17.9226" gradientUnits="userSpaceOnUse">
<stop stop-color="#46D5CF"/>
<stop offset="1" stop-color="#45D6D0"/>
</linearGradient>
<linearGradient id="paint3_linear_1_125" x1="310.291" y1="7.26669" x2="310.291" y2="11.6068" gradientUnits="userSpaceOnUse">
<stop stop-color="#46D5CF"/>
<stop offset="1" stop-color="#45D6D0"/>
</linearGradient>
<clipPath id="clip0_1_125">
<rect width="24" height="25" fill="white" transform="translate(0 56.6)"/>
</clipPath>
<clipPath id="clip1_1_125">
<rect width="24" height="25" fill="white" transform="translate(42 56.6)"/>
</clipPath>
<clipPath id="clip2_1_125">
<rect width="24" height="24" fill="white" transform="translate(0 0.599998)"/>
</clipPath>
<clipPath id="clip3_1_125">
<rect width="18" height="18" fill="white" transform="translate(141.24 3.6)"/>
</clipPath>
<clipPath id="clip4_1_125">
<rect width="24" height="25" fill="white" transform="translate(295.13 56.6)"/>
</clipPath>
<clipPath id="clip5_1_125">
<rect width="24" height="25" fill="white" transform="translate(337.13 56.6)"/>
</clipPath>
<clipPath id="clip6_1_125">
<rect width="24" height="24" fill="white" transform="translate(295.13 0.599998)"/>
</clipPath>
<clipPath id="clip7_1_125">
<rect width="14" height="8" fill="white" transform="translate(430.91 8.6)"/>
</clipPath>
<clipPath id="clip8_1_125">
<rect width="18" height="18" fill="white" transform="translate(456.91 3.6)"/>
</clipPath>
<clipPath id="clip9_1_125">
<rect width="24" height="24" fill="white" transform="translate(610.8 0.599998)"/>
</clipPath>
<clipPath id="clip10_1_125">
<rect width="14" height="8" fill="white" transform="translate(761.09 8.6)"/>
</clipPath>
<clipPath id="clip11_1_125">
<rect width="18" height="18" fill="white" transform="translate(787.09 3.6)"/>
</clipPath>
<clipPath id="clip12_1_125">
<rect width="20" height="20" fill="white" transform="translate(1008.83 58.6)"/>
</clipPath>
<clipPath id="clip13_1_125">
<rect width="24" height="24" fill="white" transform="translate(940.98 0.599998)"/>
</clipPath>
<clipPath id="clip14_1_125">
<rect width="18" height="18" fill="white" transform="translate(1089 3.6)"/>
</clipPath>
</defs>
</svg>
