<svg width="238" height="21" viewBox="0 0 238 21" fill="none" xmlns="http://www.w3.org/2000/svg">
<g clip-path="url(#clip0_1_107)">
<path fill-rule="evenodd" clip-rule="evenodd" d="M15.6747 17.1583C16.2654 17.9171 16.9743 18.7973 16.9743 18.7973C18.1465 18.8278 19.3082 18.5636 20.3585 18.0275C21.4086 17.4915 22.3154 16.6999 23 15.7216C22.9361 11.6194 21.9665 7.5857 20.1644 3.92466C18.5785 2.64477 16.6451 1.90235 14.631 1.8L14.3553 2.12374C16.1476 2.61104 17.8187 3.48344 19.2586 4.68351C17.425 3.64492 15.4115 2.98502 13.3313 2.74095C12.0107 2.60201 10.6786 2.62578 9.36341 2.81173C9.25096 2.8152 9.13888 2.82879 9.02869 2.85218C7.4832 3.02964 5.97468 3.45642 4.55862 4.11686C3.83005 4.45078 3.39685 4.70374 3.39685 4.70374C4.90988 3.44137 6.67463 2.53639 8.56596 2.05295L8.369 1.8C6.35493 1.90235 4.42153 2.64477 2.83564 3.92466C1.03348 7.5857 0.0639256 11.6194 0 15.7216C0.679069 16.7008 1.58207 17.4936 2.62936 18.0299C3.67666 18.5662 4.83626 18.8298 6.006 18.7973C6.006 18.7973 6.23654 18.506 6.5434 18.1161C6.78205 17.8128 7.0669 17.4498 7.32538 17.1178C5.94095 16.7591 4.72201 15.9144 3.87926 14.7301C4.58274 15.2114 5.3355 15.6118 6.12416 15.924C7.06126 16.304 8.03014 16.5953 9.01884 16.7941C10.7028 17.1268 12.4325 17.1337 14.119 16.8143C15.1002 16.638 16.0583 16.346 16.9743 15.9442C17.7706 15.6354 18.5303 15.2349 19.2389 14.7503C18.3646 15.9601 17.1021 16.813 15.6747 17.1583ZM6.38437 10.0668C6.75734 9.65077 7.26897 9.39404 7.81763 9.34765C8.09369 9.35768 8.36502 9.42399 8.61584 9.54263C8.86673 9.66135 9.09216 9.83008 9.27898 10.039C9.46587 10.2481 9.61048 10.4931 9.70445 10.76C9.79835 11.0268 9.83974 11.3102 9.82622 11.5937C9.83808 11.8768 9.79557 12.1594 9.70099 12.4256C9.60649 12.6918 9.46174 12.9361 9.27522 13.1447C9.08863 13.3533 8.86388 13.5221 8.61381 13.6414C8.36366 13.7607 8.09316 13.8281 7.81763 13.8398C7.26897 13.7934 6.75734 13.5367 6.38437 13.1205C6.01134 12.7044 5.80431 12.1594 5.80431 11.5937C5.80431 11.028 6.01134 10.483 6.38437 10.0668ZM13.7398 9.63225C14.1241 9.40863 14.5651 9.30944 15.0052 9.34765C15.2806 9.3593 15.5512 9.42677 15.8013 9.54602C16.0514 9.66528 16.2762 9.83402 16.4627 10.0427C16.6493 10.2513 16.794 10.4956 16.8885 10.7618C16.983 11.0279 17.0256 11.3107 17.0138 11.5937C17.0137 12.0475 16.8803 12.4907 16.631 12.8654C16.3817 13.24 16.0282 13.5285 15.6167 13.6932C15.2052 13.8579 14.7549 13.8912 14.3247 13.7886C13.8945 13.686 13.5045 13.4523 13.2056 13.1181C12.9068 12.784 12.7132 12.3649 12.65 11.9158C12.5867 11.4667 12.657 11.0084 12.8515 10.601C13.0459 10.1935 13.3555 9.85587 13.7398 9.63225Z" fill="#ABB7BD"/>
</g>
<g clip-path="url(#clip1_1_107)">
<path d="M70 2.99231C69.1375 3.43077 68.275 3.57692 67.2688 3.72308C68.275 3.13846 68.9937 2.26154 69.2812 1.09231C68.4188 1.67692 67.4125 1.96923 66.2625 2.26154C65.4 1.38462 64.1063 0.8 62.8125 0.8C60.3687 0.8 58.2125 2.99231 58.2125 5.62308C58.2125 6.06154 58.2125 6.35385 58.3562 6.64615C54.475 6.5 50.8812 4.6 48.5812 1.67692C48.15 2.40769 48.0063 3.13846 48.0063 4.16154C48.0063 5.76923 48.8687 7.23077 50.1625 8.10769C49.4437 8.10769 48.725 7.81538 48.0063 7.52308C48.0063 9.86154 49.5875 11.7615 51.7438 12.2C51.3125 12.3462 50.8813 12.3462 50.45 12.3462C50.1625 12.3462 49.875 12.3462 49.5875 12.2C50.1625 14.1 51.8875 15.5615 54.0437 15.5615C52.4625 16.8769 50.45 17.6077 48.15 17.6077C47.7188 17.6077 47.4313 17.6077 47 17.6077C49.1562 18.9231 51.6 19.8 54.1875 19.8C62.8125 19.8 67.5562 12.4923 67.5562 6.20769C67.5562 6.06154 67.5562 5.76923 67.5562 5.62308C68.5625 4.89231 69.425 4.01538 70 2.99231Z" fill="#ABB7BD"/>
</g>
<g clip-path="url(#clip2_1_107)">
<path d="M116.857 1.23182C116.857 1.08788 116.715 0.943939 116.572 0.8C116.286 0.8 116.001 0.8 115.716 0.8C115.716 0.8 95.7355 7.99697 94.5938 8.86061C94.1656 9.14848 94.1656 9.29242 94.0229 9.29242C93.8802 9.86818 94.451 10.1561 94.451 10.1561L99.5888 11.8833C99.7315 11.8833 99.7315 11.8833 99.8742 11.8833C101.016 11.1636 111.72 4.39848 112.29 4.11061C112.433 4.11061 112.433 4.11061 112.433 4.11061C112.148 4.97424 103.014 13.1788 103.014 13.3227C103.014 13.3227 102.871 13.4667 103.014 13.4667L102.586 18.5045C102.586 18.5045 102.443 20.0879 104.013 18.5045C105.155 17.353 106.154 16.4894 106.724 16.0576C108.437 17.353 110.435 18.6485 111.291 19.3682C111.577 19.6561 112.005 19.8 112.29 19.8C112.719 19.8 113.147 19.3682 113.289 18.9364C113.289 18.9364 117 4.11061 117 2.09545C117 1.95152 117 1.80758 117 1.66364C116.857 1.5197 116.857 1.37576 116.857 1.23182Z" fill="#ABB7BD"/>
</g>
<g clip-path="url(#clip3_1_107)">
<path d="M151.253 0.3C145.592 0.3 141 4.89069 141 10.5528C141 15.0828 143.937 18.9259 148.012 20.2819C148.524 20.3767 148.69 20.0589 148.69 19.7889V17.8801C145.838 18.5004 145.244 16.6703 145.244 16.6703C144.777 15.4853 144.105 15.17 144.105 15.17C143.174 14.5335 144.176 14.5471 144.176 14.5471C145.205 14.6189 145.747 15.604 145.747 15.604C146.661 17.171 148.145 16.7182 148.731 16.4559C148.822 15.7937 149.088 15.3409 149.382 15.0854C147.105 14.8248 144.711 13.9456 144.711 10.018C144.711 8.89783 145.111 7.98362 145.767 7.26593C145.661 7.00704 145.31 5.96382 145.867 4.55235C145.867 4.55235 146.728 4.27723 148.687 5.60326C149.505 5.37599 150.381 5.26236 151.253 5.25808C152.124 5.26236 153.002 5.37599 153.821 5.60326C155.779 4.27723 156.638 4.55235 156.638 4.55235C157.196 5.96467 156.845 7.0079 156.739 7.26593C157.397 7.98362 157.794 8.89868 157.794 10.018C157.794 13.9559 155.396 14.8231 153.113 15.0769C153.48 15.3947 153.816 16.0184 153.816 16.9753V19.7889C153.816 20.0614 153.98 20.3818 154.5 20.281C158.572 18.9234 161.506 15.0811 161.506 10.5528C161.506 4.89069 156.915 0.3 151.253 0.3Z" fill="#ABB7BD"/>
</g>
<g clip-path="url(#clip4_1_107)">
<path d="M201.255 9.98013C201.255 14.2216 197.84 17.66 193.628 17.66C189.415 17.66 186 14.2208 186 9.98013C186 5.73942 189.415 2.3 193.628 2.3C197.84 2.3 201.255 5.73864 201.255 9.98013Z" fill="#ABB7BD"/>
<path d="M209.623 9.98008C209.623 13.9725 207.915 17.2103 205.809 17.2103C203.702 17.2103 201.995 13.9725 201.995 9.98008C201.995 5.98763 203.702 2.74983 205.808 2.74983C207.915 2.74983 209.623 5.9866 209.623 9.98008Z" fill="#ABB7BD"/>
<path d="M213.046 9.98016C213.046 13.5564 212.445 16.4573 211.704 16.4573C210.963 16.4573 210.363 13.5572 210.363 9.98016C210.363 6.40314 210.964 3.503 211.704 3.503C212.445 3.503 213.046 6.40288 213.046 9.98016Z" fill="#ABB7BD"/>
</g>
<defs>
<clipPath id="clip0_1_107">
<rect width="23" height="17" fill="white" transform="translate(0 1.8)"/>
</clipPath>
<clipPath id="clip1_1_107">
<rect width="23" height="19" fill="white" transform="translate(47 0.8)"/>
</clipPath>
<clipPath id="clip2_1_107">
<rect width="23" height="19" fill="white" transform="translate(94 0.8)"/>
</clipPath>
<clipPath id="clip3_1_107">
<rect width="21" height="20" fill="white" transform="translate(141 0.3)"/>
</clipPath>
<clipPath id="clip4_1_107">
<rect width="28" height="16" fill="white" transform="translate(186 2.3)"/>
</clipPath>
</defs>
</svg>
