<svg width="24" height="28" viewBox="0 0 25 25" fill="none" xmlns="http://www.w3.org/2000/svg">
<g clip-path="url(#clip0_1_47)">
<path d="M0.290039 12.6C0.290039 5.97256 5.66262 0.599976 12.29 0.599976C18.9175 0.599976 24.29 5.97256 24.29 12.6C24.29 19.2274 18.9175 24.6 12.29 24.6C5.66262 24.6 0.290039 19.2274 0.290039 12.6Z" fill="#1B2022"/>
<path fill-rule="evenodd" clip-rule="evenodd" d="M15.451 13.5825C13.159 13.5825 11.3015 11.7255 11.3015 9.4367C11.3015 8.23835 10.3349 7.26666 9.12916 7.26666C7.93434 7.26666 6.95673 8.23835 6.95673 9.4367C6.95673 10.6351 7.92346 11.6067 9.12916 11.6067H9.14004C11.4211 11.6067 13.2677 13.4637 13.2785 15.7525V15.7633C13.2785 16.9617 14.2452 17.9333 15.451 17.9333C16.6567 17.9333 17.6234 16.9617 17.6234 15.7633C17.6125 14.5541 16.6458 13.5825 15.451 13.5825Z" fill="#46D5CF"/>
<path fill-rule="evenodd" clip-rule="evenodd" d="M9.13996 13.5825C7.94514 13.5825 6.96753 14.5541 6.96753 15.7525C6.96753 16.9509 7.93426 17.9226 9.13996 17.9226C10.3457 17.9226 11.3124 16.9509 11.3124 15.7525C11.3015 14.5541 10.3348 13.5825 9.13996 13.5825Z" fill="#46D5CF"/>
<path fill-rule="evenodd" clip-rule="evenodd" d="M15.4509 7.26666C16.6508 7.26666 17.6234 8.2382 17.6234 9.4367C17.6234 10.6352 16.6508 11.6067 15.4509 11.6067C14.2511 11.6067 13.2785 10.6352 13.2785 9.4367C13.2785 8.2382 14.2511 7.26666 15.4509 7.26666Z" fill="#46D5CF"/>
</g>
<defs>
<clipPath id="clip0_1_47">
<rect width="24" height="24" fill="white" transform="translate(0.290039 0.599976)"/>
</clipPath>
</defs>
</svg>
